<?xml version="1.0" encoding="UTF-8" standalone="no"?>
<!DOCTYPE svg PUBLIC "-//W3C//DTD SVG 1.1//EN"
 "http://www.w3.org/Graphics/SVG/1.1/DTD/svg11.dtd">
<!-- Generated by graphviz version 3.0.0 (20220226.1711)
 -->
<!-- Title: undirected Pages: 1 -->
<svg width="855pt" height="404pt"
 viewBox="0.00 0.00 854.90 404.00" xmlns="http://www.w3.org/2000/svg" xmlns:xlink="http://www.w3.org/1999/xlink">
<g id="graph0" class="graph" transform="scale(1 1) rotate(0) translate(4 400)">
<title>undirected</title>
<polygon fill="white" stroke="transparent" points="-4,4 -4,-400 850.9,-400 850.9,4 -4,4"/>
<!-- 1: -->
<g id="node1" class="node">
<title>1:</title>
<ellipse fill="none" stroke="Green" stroke-width="2" cx="450.9" cy="-378" rx="27" ry="18"/>
<text text-anchor="middle" x="450.9" y="-374.3" font-family="Times New Roman,serif" font-size="14.00">1:</text>
</g>
<!-- 10: -->
<g id="node2" class="node">
<title>10:</title>
<ellipse fill="none" stroke="black" cx="791.9" cy="-234" rx="27" ry="18"/>
<text text-anchor="middle" x="791.9" y="-230.3" font-family="Times New Roman,serif" font-size="14.00">10:</text>
</g>
<!-- 1:&#45;&#45;10: -->
<g id="edge1" class="edge">
<title>1:&#45;&#45;10:</title>
<path fill="none" stroke="Green" stroke-width="2" d="M477.56,-374.11C520.27,-368.73 605.94,-354.79 671.9,-324 713.74,-304.47 755.41,-269.07 776.92,-249.31"/>
</g>
<!-- 17: -->
<g id="node3" class="node">
<title>17:</title>
<ellipse fill="none" stroke="black" cx="434.9" cy="-18" rx="27" ry="18"/>
<text text-anchor="middle" x="434.9" y="-14.3" font-family="Times New Roman,serif" font-size="14.00">17:</text>
</g>
<!-- 1:&#45;&#45;17: -->
<g id="edge2" class="edge">
<title>1:&#45;&#45;17:</title>
<path fill="none" stroke="Green" stroke-width="2" d="M477.84,-374.76C526.35,-370.04 631,-356.66 712.9,-324 779.31,-297.52 846.9,-306.49 846.9,-235 846.9,-235 846.9,-235 846.9,-161 846.9,-79.1 552.24,-34.17 461.3,-22.25"/>
</g>
<!-- 7: -->
<g id="node4" class="node">
<title>7:</title>
<ellipse fill="none" stroke="black" cx="450.9" cy="-306" rx="27" ry="18"/>
<text text-anchor="middle" x="450.9" y="-302.3" font-family="Times New Roman,serif" font-size="14.00">7:</text>
</g>
<!-- 1:&#45;&#45;7: -->
<g id="edge3" class="edge">
<title>1:&#45;&#45;7:</title>
<path fill="none" stroke="Green" stroke-width="2" d="M450.9,-359.7C450.9,-348.85 450.9,-334.92 450.9,-324.1"/>
</g>
<!-- 9: -->
<g id="node5" class="node">
<title>9:</title>
<ellipse fill="none" stroke="black" cx="51.9" cy="-234" rx="27" ry="18"/>
<text text-anchor="middle" x="51.9" y="-230.3" font-family="Times New Roman,serif" font-size="14.00">9:</text>
</g>
<!-- 1:&#45;&#45;9: -->
<g id="edge4" class="edge">
<title>1:&#45;&#45;9:</title>
<path fill="none" stroke="Green" stroke-width="2" d="M424.38,-374.01C378.58,-368.24 282.23,-353.47 205.9,-324 153.48,-303.75 97.76,-267.31 69.93,-247.94"/>
</g>
<!-- 13: -->
<g id="node6" class="node">
<title>13:</title>
<ellipse fill="none" stroke="black" cx="51.9" cy="-162" rx="27" ry="18"/>
<text text-anchor="middle" x="51.9" y="-158.3" font-family="Times New Roman,serif" font-size="14.00">13:</text>
</g>
<!-- 1:&#45;&#45;13: -->
<g id="edge5" class="edge">
<title>1:&#45;&#45;13:</title>
<path fill="none" stroke="Green" stroke-width="2" d="M423.94,-376.67C343.4,-375.21 106.39,-367.25 44.9,-324 3.4,-294.81 -9.32,-263.72 7.9,-216 13.43,-200.7 25.5,-186.7 35.6,-176.93"/>
</g>
<!-- 7:&#45;&#45;10: -->
<g id="edge22" class="edge">
<title>7:&#45;&#45;10:</title>
<path fill="none" stroke="Green" stroke-width="2" d="M476.26,-299.8C539.39,-286.84 703.08,-253.23 766.39,-240.24"/>
</g>
<!-- 7:&#45;&#45;13: -->
<g id="edge23" class="edge">
<title>7:&#45;&#45;13:</title>
<path fill="none" stroke="Green" stroke-width="2" d="M428.23,-295.73C420.88,-292.96 412.62,-290.11 404.9,-288 318.63,-264.41 289.54,-286.23 206.9,-252 180.93,-241.24 179.01,-230.46 154.9,-216 127.66,-199.65 94.81,-183.3 73.65,-173.17"/>
</g>
<!-- 19: -->
<g id="node12" class="node">
<title>19:</title>
<ellipse fill="none" stroke="black" cx="547.9" cy="-162" rx="27" ry="18"/>
<text text-anchor="middle" x="547.9" y="-158.3" font-family="Times New Roman,serif" font-size="14.00">19:</text>
</g>
<!-- 7:&#45;&#45;19: -->
<g id="edge24" class="edge">
<title>7:&#45;&#45;19:</title>
<path fill="none" stroke="Green" stroke-width="2" d="M461.66,-289.26C480.3,-261.97 518.43,-206.15 537.1,-178.81"/>
</g>
<!-- 15: -->
<g id="node18" class="node">
<title>15:</title>
<ellipse fill="none" stroke="black" cx="462.9" cy="-162" rx="27" ry="18"/>
<text text-anchor="middle" x="462.9" y="-158.3" font-family="Times New Roman,serif" font-size="14.00">15:</text>
</g>
<!-- 7:&#45;&#45;15: -->
<g id="edge25" class="edge">
<title>7:&#45;&#45;15:</title>
<path fill="none" stroke="Green" stroke-width="2" d="M454.41,-287.89C456.38,-277.55 458.68,-264.07 459.9,-252 462.43,-227.08 462.96,-198.06 463.01,-180.11"/>
</g>
<!-- 12: -->
<g id="node19" class="node">
<title>12:</title>
<ellipse fill="none" stroke="black" cx="423.9" cy="-234" rx="27" ry="18"/>
<text text-anchor="middle" x="423.9" y="-230.3" font-family="Times New Roman,serif" font-size="14.00">12:</text>
</g>
<!-- 7:&#45;&#45;12: -->
<g id="edge26" class="edge">
<title>7:&#45;&#45;12:</title>
<path fill="none" stroke="Green" stroke-width="2" d="M444.51,-288.41C440.26,-277.41 434.71,-263.03 430.44,-251.96"/>
</g>
<!-- 16: -->
<g id="node20" class="node">
<title>16:</title>
<ellipse fill="none" stroke="black" cx="462.9" cy="-90" rx="27" ry="18"/>
<text text-anchor="middle" x="462.9" y="-86.3" font-family="Times New Roman,serif" font-size="14.00">16:</text>
</g>
<!-- 7:&#45;&#45;16: -->
<g id="edge27" class="edge">
<title>7:&#45;&#45;16:</title>
<path fill="none" stroke="Green" stroke-width="2" d="M428.1,-296.17C420.74,-293.43 412.51,-290.48 404.9,-288 349.12,-269.82 313.28,-298.8 277.9,-252 268.26,-239.24 276.58,-231.95 277.9,-216 280.58,-183.67 268.53,-168.4 289.9,-144 327.06,-101.58 397.16,-92.59 435.74,-91.01"/>
</g>
<!-- 9:&#45;&#45;17: -->
<g id="edge31" class="edge">
<title>9:&#45;&#45;17:</title>
<path fill="none" stroke="Green" stroke-width="2" d="M71.96,-221.8C137.99,-184.9 348.18,-67.46 414.59,-30.35"/>
</g>
<!-- 9:&#45;&#45;13: -->
<g id="edge32" class="edge">
<title>9:&#45;&#45;13:</title>
<path fill="none" stroke="Green" stroke-width="2" d="M51.9,-215.7C51.9,-204.85 51.9,-190.92 51.9,-180.1"/>
</g>
<!-- 2: -->
<g id="node7" class="node">
<title>2:</title>
<ellipse fill="none" stroke="black" cx="241.9" cy="-306" rx="27" ry="18"/>
<text text-anchor="middle" x="241.9" y="-302.3" font-family="Times New Roman,serif" font-size="14.00">2:</text>
</g>
<!-- 2:&#45;&#45;9: -->
<g id="edge6" class="edge">
<title>2:&#45;&#45;9:</title>
<path fill="none" stroke="Green" stroke-width="2" d="M218.28,-297.02C188.78,-286.95 136.85,-268.91 92.9,-252 86.86,-249.68 80.37,-247.05 74.38,-244.56"/>
</g>
<!-- 11: -->
<g id="node8" class="node">
<title>11:</title>
<ellipse fill="none" stroke="black" cx="313.9" cy="-234" rx="27" ry="18"/>
<text text-anchor="middle" x="313.9" y="-230.3" font-family="Times New Roman,serif" font-size="14.00">11:</text>
</g>
<!-- 2:&#45;&#45;11: -->
<g id="edge7" class="edge">
<title>2:&#45;&#45;11:</title>
<path fill="none" stroke="Green" stroke-width="2" d="M256.47,-290.83C268.88,-278.77 286.63,-261.51 299.11,-249.38"/>
</g>
<!-- 14: -->
<g id="node9" class="node">
<title>14:</title>
<ellipse fill="none" stroke="black" cx="325.9" cy="-162" rx="27" ry="18"/>
<text text-anchor="middle" x="325.9" y="-158.3" font-family="Times New Roman,serif" font-size="14.00">14:</text>
</g>
<!-- 2:&#45;&#45;14: -->
<g id="edge8" class="edge">
<title>2:&#45;&#45;14:</title>
<path fill="none" stroke="Green" stroke-width="2" d="M246.78,-288.09C252.56,-269.54 263.29,-239.3 277.9,-216 287.01,-201.49 300.24,-187.22 310.51,-177.15"/>
</g>
<!-- 20: -->
<g id="node10" class="node">
<title>20:</title>
<ellipse fill="none" stroke="black" cx="611.9" cy="-90" rx="27" ry="18"/>
<text text-anchor="middle" x="611.9" y="-86.3" font-family="Times New Roman,serif" font-size="14.00">20:</text>
</g>
<!-- 2:&#45;&#45;20: -->
<g id="edge9" class="edge">
<title>2:&#45;&#45;20:</title>
<path fill="none" stroke="Green" stroke-width="2" d="M241.05,-287.77C240.42,-253.74 244.5,-178.26 289.9,-144 295.86,-139.51 510.24,-106.49 585.84,-94.96"/>
</g>
<!-- 11:&#45;&#45;14: -->
<g id="edge33" class="edge">
<title>11:&#45;&#45;14:</title>
<path fill="none" stroke="Green" stroke-width="2" d="M316.81,-216.05C318.67,-205.21 321.07,-191.18 322.94,-180.28"/>
</g>
<!-- 11:&#45;&#45;15: -->
<g id="edge34" class="edge">
<title>11:&#45;&#45;15:</title>
<path fill="none" stroke="Green" stroke-width="2" d="M335.25,-222.97C363.42,-209.74 412.73,-186.57 441.11,-173.24"/>
</g>
<!-- 3: -->
<g id="node11" class="node">
<title>3:</title>
<ellipse fill="none" stroke="black" cx="643.9" cy="-234" rx="27" ry="18"/>
<text text-anchor="middle" x="643.9" y="-230.3" font-family="Times New Roman,serif" font-size="14.00">3:</text>
</g>
<!-- 3:&#45;&#45;20: -->
<g id="edge10" class="edge">
<title>3:&#45;&#45;20:</title>
<path fill="none" stroke="Green" stroke-width="2" d="M650.69,-216.43C657.13,-198.18 664.64,-168.2 655.9,-144 650.38,-128.7 638.31,-114.7 628.2,-104.93"/>
</g>
<!-- 3:&#45;&#45;19: -->
<g id="edge11" class="edge">
<title>3:&#45;&#45;19:</title>
<path fill="none" stroke="Green" stroke-width="2" d="M626.3,-220.16C608.97,-207.53 582.68,-188.36 565.4,-175.76"/>
</g>
<!-- 19:&#45;&#45;20: -->
<g id="edge40" class="edge">
<title>19:&#45;&#45;20:</title>
<path fill="none" stroke="Green" stroke-width="2" d="M561.48,-146.15C572.34,-134.28 587.5,-117.7 598.35,-105.82"/>
</g>
<!-- 4: -->
<g id="node13" class="node">
<title>4:</title>
<ellipse fill="none" stroke="black" cx="80.9" cy="-306" rx="27" ry="18"/>
<text text-anchor="middle" x="80.9" y="-302.3" font-family="Times New Roman,serif" font-size="14.00">4:</text>
</g>
<!-- 4:&#45;&#45;13: -->
<g id="edge12" class="edge">
<title>4:&#45;&#45;13:</title>
<path fill="none" stroke="Green" stroke-width="2" d="M59.95,-294.5C44.61,-285.54 24.96,-271.07 15.9,-252 3.75,-226.4 23.61,-195.56 38.33,-177.72"/>
</g>
<!-- 4:&#45;&#45;11: -->
<g id="edge13" class="edge">
<title>4:&#45;&#45;11:</title>
<path fill="none" stroke="Green" stroke-width="2" d="M104.96,-297.77C149.61,-284.36 244.82,-255.76 289.63,-242.29"/>
</g>
<!-- 5: -->
<g id="node14" class="node">
<title>5:</title>
<ellipse fill="none" stroke="black" cx="368.9" cy="-306" rx="27" ry="18"/>
<text text-anchor="middle" x="368.9" y="-302.3" font-family="Times New Roman,serif" font-size="14.00">5:</text>
</g>
<!-- 5:&#45;&#45;13: -->
<g id="edge14" class="edge">
<title>5:&#45;&#45;13:</title>
<path fill="none" stroke="Green" stroke-width="2" d="M343.46,-299.56C296.89,-289.38 199.88,-267.14 168.9,-252 128.09,-232.05 87.47,-196.81 66.5,-177.2"/>
</g>
<!-- 8: -->
<g id="node15" class="node">
<title>8:</title>
<ellipse fill="none" stroke="black" cx="571.9" cy="-234" rx="27" ry="18"/>
<text text-anchor="middle" x="571.9" y="-230.3" font-family="Times New Roman,serif" font-size="14.00">8:</text>
</g>
<!-- 5:&#45;&#45;8: -->
<g id="edge15" class="edge">
<title>5:&#45;&#45;8:</title>
<path fill="none" stroke="Green" stroke-width="2" d="M391.79,-296.4C399.15,-293.67 407.36,-290.67 414.9,-288 461.96,-271.36 517.35,-252.93 548.16,-242.78"/>
</g>
<!-- 8:&#45;&#45;19: -->
<g id="edge28" class="edge">
<title>8:&#45;&#45;19:</title>
<path fill="none" stroke="Green" stroke-width="2" d="M566.09,-216.05C562.32,-205.05 557.42,-190.76 553.66,-179.79"/>
</g>
<!-- 18: -->
<g id="node17" class="node">
<title>18:</title>
<ellipse fill="none" stroke="black" cx="619.9" cy="-162" rx="27" ry="18"/>
<text text-anchor="middle" x="619.9" y="-158.3" font-family="Times New Roman,serif" font-size="14.00">18:</text>
</g>
<!-- 8:&#45;&#45;18: -->
<g id="edge29" class="edge">
<title>8:&#45;&#45;18:</title>
<path fill="none" stroke="Green" stroke-width="2" d="M582.8,-217.12C590.65,-205.66 601.21,-190.26 609.06,-178.82"/>
</g>
<!-- 8:&#45;&#45;15: -->
<g id="edge30" class="edge">
<title>8:&#45;&#45;15:</title>
<path fill="none" stroke="Green" stroke-width="2" d="M552.92,-220.81C532.91,-207.96 501.6,-187.85 481.67,-175.05"/>
</g>
<!-- 6: -->
<g id="node16" class="node">
<title>6:</title>
<ellipse fill="none" stroke="black" cx="635.9" cy="-306" rx="27" ry="18"/>
<text text-anchor="middle" x="635.9" y="-302.3" font-family="Times New Roman,serif" font-size="14.00">6:</text>
</g>
<!-- 6:&#45;&#45;10: -->
<g id="edge16" class="edge">
<title>6:&#45;&#45;10:</title>
<path fill="none" stroke="Green" stroke-width="2" d="M657.6,-295.27C687.32,-281.93 740.39,-258.11 770.15,-244.76"/>
</g>
<!-- 6:&#45;&#45;9: -->
<g id="edge17" class="edge">
<title>6:&#45;&#45;9:</title>
<path fill="none" stroke="Green" stroke-width="2" d="M609.29,-301.81C511.89,-290.14 175.44,-249.81 78.34,-238.17"/>
</g>
<!-- 6:&#45;&#45;14: -->
<g id="edge18" class="edge">
<title>6:&#45;&#45;14:</title>
<path fill="none" stroke="Green" stroke-width="2" d="M609.5,-301.84C553.36,-294.73 424.3,-276.18 387.9,-252 360.93,-234.08 342.21,-200.06 332.84,-179.67"/>
</g>
<!-- 6:&#45;&#45;20: -->
<g id="edge19" class="edge">
<title>6:&#45;&#45;20:</title>
<path fill="none" stroke="Green" stroke-width="2" d="M655.88,-293.73C669.97,-284.53 687.73,-270.12 695.9,-252 702.48,-237.41 698.57,-231.78 695.9,-216 690.27,-182.6 689.65,-172.21 670.9,-144 660.08,-127.72 643.11,-113.19 630.15,-103.48"/>
</g>
<!-- 6:&#45;&#45;8: -->
<g id="edge20" class="edge">
<title>6:&#45;&#45;8:</title>
<path fill="none" stroke="Green" stroke-width="2" d="M622.33,-290.15C611.47,-278.28 596.31,-261.7 585.46,-249.82"/>
</g>
<!-- 6:&#45;&#45;18: -->
<g id="edge21" class="edge">
<title>6:&#45;&#45;18:</title>
<path fill="none" stroke="Green" stroke-width="2" d="M652.2,-291.07C662.31,-281.3 674.38,-267.3 679.9,-252 685.34,-236.95 686.48,-230.59 679.9,-216 671.73,-197.88 653.97,-183.47 639.88,-174.27"/>
</g>
<!-- 15:&#45;&#45;16: -->
<g id="edge38" class="edge">
<title>15:&#45;&#45;16:</title>
<path fill="none" stroke="Green" stroke-width="2" d="M462.9,-143.7C462.9,-132.85 462.9,-118.92 462.9,-108.1"/>
</g>
<!-- 12:&#45;&#45;17: -->
<g id="edge35" class="edge">
<title>12:&#45;&#45;17:</title>
<path fill="none" stroke="Green" stroke-width="2" d="M423.48,-215.57C422.93,-185.99 422.51,-124.09 426.9,-72 427.92,-59.95 429.97,-46.47 431.74,-36.12"/>
</g>
<!-- 12:&#45;&#45;14: -->
<g id="edge36" class="edge">
<title>12:&#45;&#45;14:</title>
<path fill="none" stroke="Green" stroke-width="2" d="M405.93,-220.16C388.25,-207.53 361.41,-188.36 343.77,-175.76"/>
</g>
<!-- 12:&#45;&#45;15: -->
<g id="edge37" class="edge">
<title>12:&#45;&#45;15:</title>
<path fill="none" stroke="Green" stroke-width="2" d="M432.95,-216.76C439.25,-205.46 447.62,-190.44 453.91,-179.15"/>
</g>
<!-- 16:&#45;&#45;17: -->
<g id="edge39" class="edge">
<title>16:&#45;&#45;17:</title>
<path fill="none" stroke="Green" stroke-width="2" d="M456.27,-72.41C451.81,-61.25 445.95,-46.6 441.49,-35.47"/>
</g>
</g>
</svg>
