<?xml version="1.0" encoding="UTF-8" standalone="no"?>
<!DOCTYPE svg PUBLIC "-//W3C//DTD SVG 1.1//EN"
 "http://www.w3.org/Graphics/SVG/1.1/DTD/svg11.dtd">
<!-- Generated by graphviz version 3.0.0 (20220226.1711)
 -->
<!-- Title: undirected Pages: 1 -->
<svg width="502pt" height="332pt"
 viewBox="0.00 0.00 502.00 332.00" xmlns="http://www.w3.org/2000/svg" xmlns:xlink="http://www.w3.org/1999/xlink">
<g id="graph0" class="graph" transform="scale(1 1) rotate(0) translate(4 328)">
<title>undirected</title>
<polygon fill="white" stroke="transparent" points="-4,4 -4,-328 498,-328 498,4 -4,4"/>
<!-- 1 -->
<g id="node1" class="node">
<title>1</title>
<ellipse fill="none" stroke="Green" stroke-width="2" cx="27" cy="-234" rx="27" ry="18"/>
<text text-anchor="middle" x="27" y="-230.3" font-family="Times New Roman,serif" font-size="14.00">1</text>
</g>
<!-- 5 -->
<g id="node2" class="node">
<title>5</title>
<ellipse fill="none" stroke="black" cx="94" cy="-162" rx="27" ry="18"/>
<text text-anchor="middle" x="94" y="-158.3" font-family="Times New Roman,serif" font-size="14.00">5</text>
</g>
<!-- 1&#45;&#45;5 -->
<g id="edge1" class="edge">
<title>1&#45;&#45;5</title>
<path fill="none" stroke="Green" stroke-width="2" d="M40.88,-218.5C52.38,-206.48 68.64,-189.49 80.14,-177.49"/>
</g>
<!-- 7 -->
<g id="node3" class="node">
<title>7</title>
<ellipse fill="none" stroke="black" cx="94" cy="-90" rx="27" ry="18"/>
<text text-anchor="middle" x="94" y="-86.3" font-family="Times New Roman,serif" font-size="14.00">7</text>
</g>
<!-- 1&#45;&#45;7 -->
<g id="edge2" class="edge">
<title>1&#45;&#45;7</title>
<path fill="none" stroke="Green" stroke-width="2" d="M31.46,-216.07C36.61,-197.76 45.95,-167.97 58,-144 64.7,-130.68 74.25,-116.79 81.83,-106.57"/>
</g>
<!-- 5&#45;&#45;7 -->
<g id="edge13" class="edge">
<title>5&#45;&#45;7</title>
<path fill="none" stroke="Green" stroke-width="2" d="M94,-143.7C94,-132.85 94,-118.92 94,-108.1"/>
</g>
<!-- 10 -->
<g id="node12" class="node">
<title>10</title>
<ellipse fill="none" stroke="black" cx="285" cy="-90" rx="27" ry="18"/>
<text text-anchor="middle" x="285" y="-86.3" font-family="Times New Roman,serif" font-size="14.00">10</text>
</g>
<!-- 5&#45;&#45;10 -->
<g id="edge14" class="edge">
<title>5&#45;&#45;10</title>
<path fill="none" stroke="Green" stroke-width="2" d="M117.04,-152.56C153.75,-139.1 225.12,-112.95 261.88,-99.47"/>
</g>
<!-- 12 -->
<g id="node11" class="node">
<title>12</title>
<ellipse fill="none" stroke="black" cx="123" cy="-18" rx="27" ry="18"/>
<text text-anchor="middle" x="123" y="-14.3" font-family="Times New Roman,serif" font-size="14.00">12</text>
</g>
<!-- 7&#45;&#45;12 -->
<g id="edge16" class="edge">
<title>7&#45;&#45;12</title>
<path fill="none" stroke="Green" stroke-width="2" d="M100.87,-72.41C105.5,-61.25 111.56,-46.6 116.18,-35.47"/>
</g>
<!-- 2 -->
<g id="node4" class="node">
<title>2</title>
<ellipse fill="none" stroke="black" cx="395" cy="-90" rx="27" ry="18"/>
<text text-anchor="middle" x="395" y="-86.3" font-family="Times New Roman,serif" font-size="14.00">2</text>
</g>
<!-- 11 -->
<g id="node5" class="node">
<title>11</title>
<ellipse fill="none" stroke="black" cx="340" cy="-18" rx="27" ry="18"/>
<text text-anchor="middle" x="340" y="-14.3" font-family="Times New Roman,serif" font-size="14.00">11</text>
</g>
<!-- 2&#45;&#45;11 -->
<g id="edge3" class="edge">
<title>2&#45;&#45;11</title>
<path fill="none" stroke="Green" stroke-width="2" d="M383.07,-73.81C373.84,-62.07 361.13,-45.89 351.91,-34.16"/>
</g>
<!-- 3 -->
<g id="node6" class="node">
<title>3</title>
<ellipse fill="none" stroke="black" cx="236" cy="-306" rx="27" ry="18"/>
<text text-anchor="middle" x="236" y="-302.3" font-family="Times New Roman,serif" font-size="14.00">3</text>
</g>
<!-- 3&#45;&#45;5 -->
<g id="edge4" class="edge">
<title>3&#45;&#45;5</title>
<path fill="none" stroke="Green" stroke-width="2" d="M209.43,-302.76C177.95,-298.55 126.55,-286.5 101,-252 85.5,-231.08 87.33,-199.29 90.42,-179.9"/>
</g>
<!-- 3&#45;&#45;11 -->
<g id="edge5" class="edge">
<title>3&#45;&#45;11</title>
<path fill="none" stroke="Green" stroke-width="2" d="M250.19,-290.38C270.36,-268.49 306.49,-224.95 321,-180 337.26,-129.65 339.88,-66.42 340.13,-36.39"/>
</g>
<!-- 4 -->
<g id="node7" class="node">
<title>4</title>
<ellipse fill="none" stroke="black" cx="209" cy="-234" rx="27" ry="18"/>
<text text-anchor="middle" x="209" y="-230.3" font-family="Times New Roman,serif" font-size="14.00">4</text>
</g>
<!-- 3&#45;&#45;4 -->
<g id="edge6" class="edge">
<title>3&#45;&#45;4</title>
<path fill="none" stroke="Green" stroke-width="2" d="M229.6,-288.41C225.36,-277.41 219.81,-263.03 215.54,-251.96"/>
</g>
<!-- 9 -->
<g id="node8" class="node">
<title>9</title>
<ellipse fill="none" stroke="black" cx="285" cy="-162" rx="27" ry="18"/>
<text text-anchor="middle" x="285" y="-158.3" font-family="Times New Roman,serif" font-size="14.00">9</text>
</g>
<!-- 3&#45;&#45;9 -->
<g id="edge7" class="edge">
<title>3&#45;&#45;9</title>
<path fill="none" stroke="Green" stroke-width="2" d="M244.65,-288.61C249.87,-278.3 256.37,-264.61 261,-252 270,-227.51 277.27,-198.13 281.36,-180.01"/>
</g>
<!-- 8 -->
<g id="node9" class="node">
<title>8</title>
<ellipse fill="none" stroke="black" cx="137" cy="-234" rx="27" ry="18"/>
<text text-anchor="middle" x="137" y="-230.3" font-family="Times New Roman,serif" font-size="14.00">8</text>
</g>
<!-- 3&#45;&#45;8 -->
<g id="edge8" class="edge">
<title>3&#45;&#45;8</title>
<path fill="none" stroke="Green" stroke-width="2" d="M217.84,-292.16C199.98,-279.53 172.87,-260.36 155.04,-247.76"/>
</g>
<!-- 13 -->
<g id="node10" class="node">
<title>13</title>
<ellipse fill="none" stroke="black" cx="211" cy="-162" rx="27" ry="18"/>
<text text-anchor="middle" x="211" y="-158.3" font-family="Times New Roman,serif" font-size="14.00">13</text>
</g>
<!-- 3&#45;&#45;13 -->
<g id="edge9" class="edge">
<title>3&#45;&#45;13</title>
<path fill="none" stroke="Green" stroke-width="2" d="M241.43,-288.25C246.46,-270.09 252.17,-240.44 245,-216 240.88,-201.94 231.76,-188.08 224,-178.06"/>
</g>
<!-- 4&#45;&#45;5 -->
<g id="edge10" class="edge">
<title>4&#45;&#45;5</title>
<path fill="none" stroke="Green" stroke-width="2" d="M189.75,-221.28C168.52,-208.36 134.56,-187.69 113.31,-174.75"/>
</g>
<!-- 4&#45;&#45;13 -->
<g id="edge11" class="edge">
<title>4&#45;&#45;13</title>
<path fill="none" stroke="Green" stroke-width="2" d="M209.49,-215.7C209.8,-204.85 210.2,-190.92 210.51,-180.1"/>
</g>
<!-- 4&#45;&#45;12 -->
<g id="edge12" class="edge">
<title>4&#45;&#45;12</title>
<path fill="none" stroke="Green" stroke-width="2" d="M197.46,-217.39C190.28,-207.15 181.26,-193.24 175,-180 151.28,-129.81 134.24,-65.97 126.95,-36"/>
</g>
<!-- 9&#45;&#45;10 -->
<g id="edge17" class="edge">
<title>9&#45;&#45;10</title>
<path fill="none" stroke="Green" stroke-width="2" d="M285,-143.7C285,-132.85 285,-118.92 285,-108.1"/>
</g>
<!-- 10&#45;&#45;11 -->
<g id="edge18" class="edge">
<title>10&#45;&#45;11</title>
<path fill="none" stroke="Green" stroke-width="2" d="M296.93,-73.81C306.16,-62.07 318.87,-45.89 328.09,-34.16"/>
</g>
<!-- 6 -->
<g id="node13" class="node">
<title>6</title>
<ellipse fill="none" stroke="black" cx="395" cy="-306" rx="27" ry="18"/>
<text text-anchor="middle" x="395" y="-302.3" font-family="Times New Roman,serif" font-size="14.00">6</text>
</g>
<!-- 15 -->
<g id="node14" class="node">
<title>15</title>
<ellipse fill="none" stroke="black" cx="395" cy="-234" rx="27" ry="18"/>
<text text-anchor="middle" x="395" y="-230.3" font-family="Times New Roman,serif" font-size="14.00">15</text>
</g>
<!-- 6&#45;&#45;15 -->
<g id="edge15" class="edge">
<title>6&#45;&#45;15</title>
<path fill="none" stroke="black" d="M395,-287.7C395,-276.85 395,-262.92 395,-252.1"/>
</g>
<!-- 14 -->
<g id="node15" class="node">
<title>14</title>
<ellipse fill="none" stroke="black" cx="467" cy="-306" rx="27" ry="18"/>
<text text-anchor="middle" x="467" y="-302.3" font-family="Times New Roman,serif" font-size="14.00">14</text>
</g>
</g>
</svg>
