<?xml version="1.0" encoding="UTF-8" standalone="no"?>
<!DOCTYPE svg PUBLIC "-//W3C//DTD SVG 1.1//EN"
 "http://www.w3.org/Graphics/SVG/1.1/DTD/svg11.dtd">
<!-- Generated by graphviz version 3.0.0 (20220226.1711)
 -->
<!-- Title: undirected Pages: 1 -->
<svg width="718pt" height="332pt"
 viewBox="0.00 0.00 718.00 332.00" xmlns="http://www.w3.org/2000/svg" xmlns:xlink="http://www.w3.org/1999/xlink">
<g id="graph0" class="graph" transform="scale(1 1) rotate(0) translate(4 328)">
<title>undirected</title>
<polygon fill="white" stroke="transparent" points="-4,4 -4,-328 714,-328 714,4 -4,4"/>
<!-- 1:0 -->
<g id="node1" class="node">
<title>1:0</title>
<ellipse fill="none" stroke="Green" stroke-width="2" cx="346" cy="-162" rx="27" ry="18"/>
<text text-anchor="middle" x="346" y="-158.3" font-family="Times New Roman,serif" font-size="14.00">1:0</text>
</g>
<!-- 10:1 -->
<g id="node2" class="node">
<title>10:1</title>
<ellipse fill="none" stroke="black" cx="209" cy="-90" rx="27" ry="18"/>
<text text-anchor="middle" x="209" y="-86.3" font-family="Times New Roman,serif" font-size="14.00">10:1</text>
</g>
<!-- 1:0&#45;&#45;10:1 -->
<g id="edge1" class="edge">
<title>1:0&#45;&#45;10:1</title>
<path fill="none" stroke="Green" stroke-width="2" d="M325.19,-150.37C299.44,-137.21 255.84,-114.93 230,-101.73"/>
</g>
<!-- 13:1 -->
<g id="node3" class="node">
<title>13:1</title>
<ellipse fill="none" stroke="black" cx="573" cy="-18" rx="27" ry="18"/>
<text text-anchor="middle" x="573" y="-14.3" font-family="Times New Roman,serif" font-size="14.00">13:1</text>
</g>
<!-- 1:0&#45;&#45;13:1 -->
<g id="edge2" class="edge">
<title>1:0&#45;&#45;13:1</title>
<path fill="none" stroke="Green" stroke-width="2" d="M350.56,-143.98C356.83,-123.88 370.01,-90.81 393,-72 438.13,-35.08 508.15,-23.88 546.19,-20.48"/>
</g>
<!-- 14:1 -->
<g id="node4" class="node">
<title>14:1</title>
<ellipse fill="none" stroke="black" cx="501" cy="-90" rx="27" ry="18"/>
<text text-anchor="middle" x="501" y="-86.3" font-family="Times New Roman,serif" font-size="14.00">14:1</text>
</g>
<!-- 1:0&#45;&#45;14:1 -->
<g id="edge3" class="edge">
<title>1:0&#45;&#45;14:1</title>
<path fill="none" stroke="Green" stroke-width="2" d="M368,-151.38C391.93,-140.87 431.29,-123.47 465,-108 469.77,-105.81 474.89,-103.42 479.72,-101.15"/>
</g>
<!-- 12:1 -->
<g id="node5" class="node">
<title>12:1</title>
<ellipse fill="none" stroke="black" cx="429" cy="-90" rx="27" ry="18"/>
<text text-anchor="middle" x="429" y="-86.3" font-family="Times New Roman,serif" font-size="14.00">12:1</text>
</g>
<!-- 1:0&#45;&#45;12:1 -->
<g id="edge4" class="edge">
<title>1:0&#45;&#45;12:1</title>
<path fill="none" stroke="Green" stroke-width="2" d="M362.4,-147.17C377.04,-134.82 398.37,-116.83 412.92,-104.56"/>
</g>
<!-- 17:2 -->
<g id="node9" class="node">
<title>17:2</title>
<ellipse fill="none" stroke="black" cx="82" cy="-18" rx="27" ry="18"/>
<text text-anchor="middle" x="82" y="-14.3" font-family="Times New Roman,serif" font-size="14.00">17:2</text>
</g>
<!-- 10:1&#45;&#45;17:2 -->
<g id="edge21" class="edge">
<title>10:1&#45;&#45;17:2</title>
<path fill="none" stroke="Green" stroke-width="2" d="M188.88,-77.91C165.24,-64.88 126.23,-43.38 102.45,-30.27"/>
</g>
<!-- 19:2 -->
<g id="node14" class="node">
<title>19:2</title>
<ellipse fill="none" stroke="black" cx="209" cy="-18" rx="27" ry="18"/>
<text text-anchor="middle" x="209" y="-14.3" font-family="Times New Roman,serif" font-size="14.00">19:2</text>
</g>
<!-- 10:1&#45;&#45;19:2 -->
<g id="edge22" class="edge">
<title>10:1&#45;&#45;19:2</title>
<path fill="none" stroke="Green" stroke-width="2" d="M209,-71.7C209,-60.85 209,-46.92 209,-36.1"/>
</g>
<!-- 16:2 -->
<g id="node15" class="node">
<title>16:2</title>
<ellipse fill="none" stroke="black" cx="374" cy="-18" rx="27" ry="18"/>
<text text-anchor="middle" x="374" y="-14.3" font-family="Times New Roman,serif" font-size="14.00">16:2</text>
</g>
<!-- 14:1&#45;&#45;16:2 -->
<g id="edge26" class="edge">
<title>14:1&#45;&#45;16:2</title>
<path fill="none" stroke="Green" stroke-width="2" d="M480.88,-77.91C457.24,-64.88 418.23,-43.38 394.45,-30.27"/>
</g>
<!-- 12:1&#45;&#45;13:1 -->
<g id="edge25" class="edge">
<title>12:1&#45;&#45;13:1</title>
<path fill="none" stroke="Green" stroke-width="2" d="M450.25,-78.67C477.47,-65.44 524.4,-42.63 551.67,-29.37"/>
</g>
<!-- 2:3 -->
<g id="node6" class="node">
<title>2:3</title>
<ellipse fill="none" stroke="black" cx="137" cy="-162" rx="27" ry="18"/>
<text text-anchor="middle" x="137" y="-158.3" font-family="Times New Roman,serif" font-size="14.00">2:3</text>
</g>
<!-- 15:4 -->
<g id="node7" class="node">
<title>15:4</title>
<ellipse fill="none" stroke="black" cx="137" cy="-90" rx="27" ry="18"/>
<text text-anchor="middle" x="137" y="-86.3" font-family="Times New Roman,serif" font-size="14.00">15:4</text>
</g>
<!-- 2:3&#45;&#45;15:4 -->
<g id="edge5" class="edge">
<title>2:3&#45;&#45;15:4</title>
<path fill="none" stroke="Green" stroke-width="2" d="M137,-143.7C137,-132.85 137,-118.92 137,-108.1"/>
</g>
<!-- 6:3 -->
<g id="node8" class="node">
<title>6:3</title>
<ellipse fill="none" stroke="black" cx="281" cy="-90" rx="27" ry="18"/>
<text text-anchor="middle" x="281" y="-86.3" font-family="Times New Roman,serif" font-size="14.00">6:3</text>
</g>
<!-- 2:3&#45;&#45;6:3 -->
<g id="edge6" class="edge">
<title>2:3&#45;&#45;6:3</title>
<path fill="none" stroke="Green" stroke-width="2" d="M158.25,-150.67C185.47,-137.44 232.4,-114.63 259.67,-101.37"/>
</g>
<!-- 2:3&#45;&#45;17:2 -->
<g id="edge7" class="edge">
<title>2:3&#45;&#45;17:2</title>
<path fill="none" stroke="Green" stroke-width="2" d="M124.25,-145.7C116.44,-135.59 106.85,-121.71 101,-108 90.83,-84.17 85.89,-54.35 83.66,-35.99"/>
</g>
<!-- 6:3&#45;&#45;19:2 -->
<g id="edge11" class="edge">
<title>6:3&#45;&#45;19:2</title>
<path fill="none" stroke="Green" stroke-width="2" d="M266.43,-74.83C254.02,-62.77 236.27,-45.51 223.8,-33.38"/>
</g>
<!-- 6:3&#45;&#45;16:2 -->
<g id="edge12" class="edge">
<title>6:3&#45;&#45;16:2</title>
<path fill="none" stroke="Green" stroke-width="2" d="M298.49,-75.83C315.12,-63.32 339.98,-44.6 356.59,-32.11"/>
</g>
<!-- 20:4 -->
<g id="node16" class="node">
<title>20:4</title>
<ellipse fill="none" stroke="black" cx="281" cy="-18" rx="27" ry="18"/>
<text text-anchor="middle" x="281" y="-14.3" font-family="Times New Roman,serif" font-size="14.00">20:4</text>
</g>
<!-- 6:3&#45;&#45;20:4 -->
<g id="edge13" class="edge">
<title>6:3&#45;&#45;20:4</title>
<path fill="none" stroke="Green" stroke-width="2" d="M281,-71.7C281,-60.85 281,-46.92 281,-36.1"/>
</g>
<!-- 3:4 -->
<g id="node10" class="node">
<title>3:4</title>
<ellipse fill="none" stroke="black" cx="582" cy="-306" rx="27" ry="18"/>
<text text-anchor="middle" x="582" y="-302.3" font-family="Times New Roman,serif" font-size="14.00">3:4</text>
</g>
<!-- 4:3 -->
<g id="node11" class="node">
<title>4:3</title>
<ellipse fill="none" stroke="black" cx="582" cy="-234" rx="27" ry="18"/>
<text text-anchor="middle" x="582" y="-230.3" font-family="Times New Roman,serif" font-size="14.00">4:3</text>
</g>
<!-- 3:4&#45;&#45;4:3 -->
<g id="edge8" class="edge">
<title>3:4&#45;&#45;4:3</title>
<path fill="none" stroke="Green" stroke-width="2" d="M582,-287.7C582,-276.85 582,-262.92 582,-252.1"/>
</g>
<!-- 11:2 -->
<g id="node12" class="node">
<title>11:2</title>
<ellipse fill="none" stroke="black" cx="582" cy="-162" rx="27" ry="18"/>
<text text-anchor="middle" x="582" y="-158.3" font-family="Times New Roman,serif" font-size="14.00">11:2</text>
</g>
<!-- 4:3&#45;&#45;11:2 -->
<g id="edge9" class="edge">
<title>4:3&#45;&#45;11:2</title>
<path fill="none" stroke="Green" stroke-width="2" d="M582,-215.7C582,-204.85 582,-190.92 582,-180.1"/>
</g>
<!-- 11:2&#45;&#45;13:1 -->
<g id="edge23" class="edge">
<title>11:2&#45;&#45;13:1</title>
<path fill="none" stroke="Green" stroke-width="2" d="M592.63,-145.07C598.74,-134.93 605.82,-121.25 609,-108 612.73,-92.44 613.7,-87.29 609,-72 604.62,-57.75 594.96,-43.9 586.75,-33.93"/>
</g>
<!-- 11:2&#45;&#45;14:1 -->
<g id="edge24" class="edge">
<title>11:2&#45;&#45;14:1</title>
<path fill="none" stroke="Green" stroke-width="2" d="M566,-147.17C551.8,-134.9 531.16,-117.06 516.97,-104.8"/>
</g>
<!-- 5:3 -->
<g id="node13" class="node">
<title>5:3</title>
<ellipse fill="none" stroke="black" cx="27" cy="-90" rx="27" ry="18"/>
<text text-anchor="middle" x="27" y="-86.3" font-family="Times New Roman,serif" font-size="14.00">5:3</text>
</g>
<!-- 5:3&#45;&#45;17:2 -->
<g id="edge10" class="edge">
<title>5:3&#45;&#45;17:2</title>
<path fill="none" stroke="Green" stroke-width="2" d="M38.93,-73.81C48.16,-62.07 60.87,-45.89 70.09,-34.16"/>
</g>
<!-- 7:2 -->
<g id="node17" class="node">
<title>7:2</title>
<ellipse fill="none" stroke="black" cx="465" cy="-162" rx="27" ry="18"/>
<text text-anchor="middle" x="465" y="-158.3" font-family="Times New Roman,serif" font-size="14.00">7:2</text>
</g>
<!-- 7:2&#45;&#45;14:1 -->
<g id="edge14" class="edge">
<title>7:2&#45;&#45;14:1</title>
<path fill="none" stroke="Green" stroke-width="2" d="M473.35,-144.76C479.17,-133.46 486.89,-118.44 492.7,-107.15"/>
</g>
<!-- 7:2&#45;&#45;12:1 -->
<g id="edge15" class="edge">
<title>7:2&#45;&#45;12:1</title>
<path fill="none" stroke="Green" stroke-width="2" d="M456.65,-144.76C450.83,-133.46 443.11,-118.44 437.3,-107.15"/>
</g>
<!-- 7:2&#45;&#45;16:2 -->
<g id="edge16" class="edge">
<title>7:2&#45;&#45;16:2</title>
<path fill="none" stroke="Green" stroke-width="2" d="M443.69,-150.78C427.28,-141.8 405.38,-127.17 393,-108 378.77,-85.97 375.01,-55.09 374.12,-36.1"/>
</g>
<!-- 8:2 -->
<g id="node18" class="node">
<title>8:2</title>
<ellipse fill="none" stroke="black" cx="573" cy="-90" rx="27" ry="18"/>
<text text-anchor="middle" x="573" y="-86.3" font-family="Times New Roman,serif" font-size="14.00">8:2</text>
</g>
<!-- 7:2&#45;&#45;8:2 -->
<g id="edge17" class="edge">
<title>7:2&#45;&#45;8:2</title>
<path fill="none" stroke="Green" stroke-width="2" d="M483.81,-148.81C503.63,-135.96 534.66,-115.85 554.4,-103.05"/>
</g>
<!-- 8:2&#45;&#45;13:1 -->
<g id="edge18" class="edge">
<title>8:2&#45;&#45;13:1</title>
<path fill="none" stroke="Green" stroke-width="2" d="M573,-71.7C573,-60.85 573,-46.92 573,-36.1"/>
</g>
<!-- 9:2 -->
<g id="node19" class="node">
<title>9:2</title>
<ellipse fill="none" stroke="black" cx="683" cy="-90" rx="27" ry="18"/>
<text text-anchor="middle" x="683" y="-86.3" font-family="Times New Roman,serif" font-size="14.00">9:2</text>
</g>
<!-- 9:2&#45;&#45;13:1 -->
<g id="edge19" class="edge">
<title>9:2&#45;&#45;13:1</title>
<path fill="none" stroke="Green" stroke-width="2" d="M663.84,-76.81C643.65,-63.96 612.05,-43.85 591.94,-31.05"/>
</g>
<!-- 18:3 -->
<g id="node20" class="node">
<title>18:3</title>
<ellipse fill="none" stroke="black" cx="683" cy="-18" rx="27" ry="18"/>
<text text-anchor="middle" x="683" y="-14.3" font-family="Times New Roman,serif" font-size="14.00">18:3</text>
</g>
<!-- 9:2&#45;&#45;18:3 -->
<g id="edge20" class="edge">
<title>9:2&#45;&#45;18:3</title>
<path fill="none" stroke="Green" stroke-width="2" d="M683,-71.7C683,-60.85 683,-46.92 683,-36.1"/>
</g>
</g>
</svg>
