<?xml version="1.0" encoding="UTF-8" standalone="no"?>
<!DOCTYPE svg PUBLIC "-//W3C//DTD SVG 1.1//EN"
 "http://www.w3.org/Graphics/SVG/1.1/DTD/svg11.dtd">
<!-- Generated by graphviz version 3.0.0 (20220226.1711)
 -->
<!-- Title: undirected Pages: 1 -->
<svg width="712pt" height="332pt"
 viewBox="0.00 0.00 712.14 332.00" xmlns="http://www.w3.org/2000/svg" xmlns:xlink="http://www.w3.org/1999/xlink">
<g id="graph0" class="graph" transform="scale(1 1) rotate(0) translate(4 328)">
<title>undirected</title>
<polygon fill="white" stroke="transparent" points="-4,4 -4,-328 708.14,-328 708.14,4 -4,4"/>
<!-- 1 -->
<g id="node1" class="node">
<title>1</title>
<ellipse fill="none" stroke="Green" stroke-width="2" cx="70.18" cy="-306" rx="27" ry="18"/>
<text text-anchor="middle" x="70.18" y="-302.3" font-family="Times New Roman,serif" font-size="14.00">1</text>
</g>
<!-- 17 -->
<g id="node2" class="node">
<title>17</title>
<ellipse fill="none" stroke="black" cx="431.18" cy="-18" rx="27" ry="18"/>
<text text-anchor="middle" x="431.18" y="-14.3" font-family="Times New Roman,serif" font-size="14.00">17</text>
</g>
<!-- 1&#45;&#45;17 -->
<g id="edge1" class="edge">
<title>1&#45;&#45;17</title>
<path fill="none" stroke="Green" stroke-width="2" d="M52.47,-292.07C40.79,-282.45 26.38,-268.22 19.18,-252 -0.32,-208.08 -8.59,-186.32 14.18,-144 93.71,3.86 212.35,-72.73 376.18,-36 386.71,-33.64 398.14,-30.24 407.84,-27.11"/>
</g>
<!-- 7 -->
<g id="node3" class="node">
<title>7</title>
<ellipse fill="none" stroke="black" cx="341.18" cy="-234" rx="27" ry="18"/>
<text text-anchor="middle" x="341.18" y="-230.3" font-family="Times New Roman,serif" font-size="14.00">7</text>
</g>
<!-- 1&#45;&#45;7 -->
<g id="edge2" class="edge">
<title>1&#45;&#45;7</title>
<path fill="none" stroke="Green" stroke-width="2" d="M95.18,-298.75C134.27,-288.95 212.21,-269.3 278.18,-252 290.89,-248.67 305.01,-244.86 316.66,-241.7"/>
</g>
<!-- 10 -->
<g id="node4" class="node">
<title>10</title>
<ellipse fill="none" stroke="black" cx="286.18" cy="-162" rx="27" ry="18"/>
<text text-anchor="middle" x="286.18" y="-158.3" font-family="Times New Roman,serif" font-size="14.00">10</text>
</g>
<!-- 1&#45;&#45;10 -->
<g id="edge3" class="edge">
<title>1&#45;&#45;10</title>
<path fill="none" stroke="Green" stroke-width="2" d="M88.97,-292.65C129.92,-265.72 226.81,-202.03 267.58,-175.22"/>
</g>
<!-- 20 -->
<g id="node5" class="node">
<title>20</title>
<ellipse fill="none" stroke="black" cx="159.18" cy="-90" rx="27" ry="18"/>
<text text-anchor="middle" x="159.18" y="-86.3" font-family="Times New Roman,serif" font-size="14.00">20</text>
</g>
<!-- 1&#45;&#45;20 -->
<g id="edge4" class="edge">
<title>1&#45;&#45;20</title>
<path fill="none" stroke="Green" stroke-width="2" d="M58.8,-289.41C38.08,-258.94 -0.93,-190.41 30.18,-144 52.96,-110.01 101.88,-97.8 132.5,-93.43"/>
</g>
<!-- 7&#45;&#45;10 -->
<g id="edge19" class="edge">
<title>7&#45;&#45;10</title>
<path fill="none" stroke="Green" stroke-width="2" d="M329.24,-217.81C320.02,-206.07 307.31,-189.89 298.09,-178.16"/>
</g>
<!-- 12 -->
<g id="node18" class="node">
<title>12</title>
<ellipse fill="none" stroke="black" cx="396.18" cy="-162" rx="27" ry="18"/>
<text text-anchor="middle" x="396.18" y="-158.3" font-family="Times New Roman,serif" font-size="14.00">12</text>
</g>
<!-- 7&#45;&#45;12 -->
<g id="edge20" class="edge">
<title>7&#45;&#45;12</title>
<path fill="none" stroke="Green" stroke-width="2" d="M353.11,-217.81C362.34,-206.07 375.05,-189.89 384.27,-178.16"/>
</g>
<!-- 11 -->
<g id="node19" class="node">
<title>11</title>
<ellipse fill="none" stroke="black" cx="321.18" cy="-90" rx="27" ry="18"/>
<text text-anchor="middle" x="321.18" y="-86.3" font-family="Times New Roman,serif" font-size="14.00">11</text>
</g>
<!-- 7&#45;&#45;11 -->
<g id="edge21" class="edge">
<title>7&#45;&#45;11</title>
<path fill="none" stroke="Green" stroke-width="2" d="M338.76,-215.87C334.92,-188.58 327.45,-135.52 323.6,-108.19"/>
</g>
<!-- 10&#45;&#45;20 -->
<g id="edge26" class="edge">
<title>10&#45;&#45;20</title>
<path fill="none" stroke="Green" stroke-width="2" d="M266.05,-149.91C242.41,-136.88 203.41,-115.38 179.63,-102.27"/>
</g>
<!-- 13 -->
<g id="node7" class="node">
<title>13</title>
<ellipse fill="none" stroke="black" cx="249.18" cy="-90" rx="27" ry="18"/>
<text text-anchor="middle" x="249.18" y="-86.3" font-family="Times New Roman,serif" font-size="14.00">13</text>
</g>
<!-- 10&#45;&#45;13 -->
<g id="edge27" class="edge">
<title>10&#45;&#45;13</title>
<path fill="none" stroke="Green" stroke-width="2" d="M277.59,-144.76C271.62,-133.46 263.68,-118.44 257.71,-107.15"/>
</g>
<!-- 19 -->
<g id="node14" class="node">
<title>19</title>
<ellipse fill="none" stroke="black" cx="651.18" cy="-90" rx="27" ry="18"/>
<text text-anchor="middle" x="651.18" y="-86.3" font-family="Times New Roman,serif" font-size="14.00">19</text>
</g>
<!-- 10&#45;&#45;19 -->
<g id="edge28" class="edge">
<title>10&#45;&#45;19</title>
<path fill="none" stroke="Green" stroke-width="2" d="M311.07,-154.72C325.37,-151.25 343.71,-147.05 360.18,-144 472.72,-123.17 505.52,-140.81 615.18,-108 620.34,-106.45 625.7,-104.27 630.66,-101.99"/>
</g>
<!-- 10&#45;&#45;11 -->
<g id="edge29" class="edge">
<title>10&#45;&#45;11</title>
<path fill="none" stroke="Green" stroke-width="2" d="M294.29,-144.76C299.87,-133.62 307.24,-118.87 312.86,-107.63"/>
</g>
<!-- 2 -->
<g id="node6" class="node">
<title>2</title>
<ellipse fill="none" stroke="black" cx="80.18" cy="-234" rx="27" ry="18"/>
<text text-anchor="middle" x="80.18" y="-230.3" font-family="Times New Roman,serif" font-size="14.00">2</text>
</g>
<!-- 2&#45;&#45;13 -->
<g id="edge5" class="edge">
<title>2&#45;&#45;13</title>
<path fill="none" stroke="Green" stroke-width="2" d="M102.08,-223.41C122.07,-214.05 151.82,-198.53 174.18,-180 200.78,-157.95 225.31,-125.65 238.66,-106.63"/>
</g>
<!-- 5 -->
<g id="node8" class="node">
<title>5</title>
<ellipse fill="none" stroke="black" cx="66.18" cy="-162" rx="27" ry="18"/>
<text text-anchor="middle" x="66.18" y="-158.3" font-family="Times New Roman,serif" font-size="14.00">5</text>
</g>
<!-- 2&#45;&#45;5 -->
<g id="edge6" class="edge">
<title>2&#45;&#45;5</title>
<path fill="none" stroke="Green" stroke-width="2" d="M76.79,-216.05C74.62,-205.21 71.81,-191.18 69.63,-180.28"/>
</g>
<!-- 16 -->
<g id="node9" class="node">
<title>16</title>
<ellipse fill="none" stroke="black" cx="340.18" cy="-18" rx="27" ry="18"/>
<text text-anchor="middle" x="340.18" y="-14.3" font-family="Times New Roman,serif" font-size="14.00">16</text>
</g>
<!-- 2&#45;&#45;16 -->
<g id="edge7" class="edge">
<title>2&#45;&#45;16</title>
<path fill="none" stroke="Green" stroke-width="2" d="M62.46,-220.15C50.85,-210.56 36.67,-196.34 30.18,-180 24.27,-165.13 23.13,-158.37 30.18,-144 82.18,-37.98 247.39,-21.53 312.97,-19.24"/>
</g>
<!-- 6 -->
<g id="node10" class="node">
<title>6</title>
<ellipse fill="none" stroke="black" cx="138.18" cy="-162" rx="27" ry="18"/>
<text text-anchor="middle" x="138.18" y="-158.3" font-family="Times New Roman,serif" font-size="14.00">6</text>
</g>
<!-- 2&#45;&#45;6 -->
<g id="edge8" class="edge">
<title>2&#45;&#45;6</title>
<path fill="none" stroke="Green" stroke-width="2" d="M92.76,-217.81C102.49,-206.07 115.89,-189.89 125.62,-178.16"/>
</g>
<!-- 13&#45;&#45;17 -->
<g id="edge33" class="edge">
<title>13&#45;&#45;17</title>
<path fill="none" stroke="Green" stroke-width="2" d="M270.35,-78.6C275.18,-76.34 280.33,-74.02 285.18,-72 327.62,-54.32 378.29,-36.68 407.4,-26.87"/>
</g>
<!-- 6&#45;&#45;20 -->
<g id="edge18" class="edge">
<title>6&#45;&#45;20</title>
<path fill="none" stroke="Green" stroke-width="2" d="M143.26,-144.05C146.56,-133.05 150.85,-118.76 154.14,-107.79"/>
</g>
<!-- 3 -->
<g id="node11" class="node">
<title>3</title>
<ellipse fill="none" stroke="black" cx="396.18" cy="-306" rx="27" ry="18"/>
<text text-anchor="middle" x="396.18" y="-302.3" font-family="Times New Roman,serif" font-size="14.00">3</text>
</g>
<!-- 3&#45;&#45;7 -->
<g id="edge9" class="edge">
<title>3&#45;&#45;7</title>
<path fill="none" stroke="Green" stroke-width="2" d="M384.24,-289.81C375.02,-278.07 362.31,-261.89 353.09,-250.16"/>
</g>
<!-- 3&#45;&#45;6 -->
<g id="edge10" class="edge">
<title>3&#45;&#45;6</title>
<path fill="none" stroke="Green" stroke-width="2" d="M369.38,-302.9C330.42,-298.72 257.22,-286.56 206.18,-252 178.48,-233.25 157.31,-199.52 146.39,-179.4"/>
</g>
<!-- 14 -->
<g id="node12" class="node">
<title>14</title>
<ellipse fill="none" stroke="black" cx="431.18" cy="-90" rx="27" ry="18"/>
<text text-anchor="middle" x="431.18" y="-86.3" font-family="Times New Roman,serif" font-size="14.00">14</text>
</g>
<!-- 3&#45;&#45;14 -->
<g id="edge11" class="edge">
<title>3&#45;&#45;14</title>
<path fill="none" stroke="Green" stroke-width="2" d="M402.6,-288.34C411.35,-264.69 426.56,-219.8 432.18,-180 434.41,-164.16 432.33,-160 432.18,-144 432.06,-132.04 431.81,-118.56 431.58,-108.18"/>
</g>
<!-- 18 -->
<g id="node13" class="node">
<title>18</title>
<ellipse fill="none" stroke="black" cx="579.18" cy="-18" rx="27" ry="18"/>
<text text-anchor="middle" x="579.18" y="-14.3" font-family="Times New Roman,serif" font-size="14.00">18</text>
</g>
<!-- 3&#45;&#45;18 -->
<g id="edge12" class="edge">
<title>3&#45;&#45;18</title>
<path fill="none" stroke="Green" stroke-width="2" d="M423.23,-304.92C466.64,-303.46 552.6,-294.87 608.18,-252 677.35,-198.64 733.38,-146.15 687.18,-72 669.28,-43.28 630.79,-29.69 604.93,-23.57"/>
</g>
<!-- 3&#45;&#45;19 -->
<g id="edge13" class="edge">
<title>3&#45;&#45;19</title>
<path fill="none" stroke="Green" stroke-width="2" d="M423.28,-304.17C462.45,-301.57 535.11,-291.36 580.18,-252 624.7,-213.11 642.48,-141.03 648.51,-108.15"/>
</g>
<!-- 15 -->
<g id="node15" class="node">
<title>15</title>
<ellipse fill="none" stroke="black" cx="242.18" cy="-234" rx="27" ry="18"/>
<text text-anchor="middle" x="242.18" y="-230.3" font-family="Times New Roman,serif" font-size="14.00">15</text>
</g>
<!-- 3&#45;&#45;15 -->
<g id="edge14" class="edge">
<title>3&#45;&#45;15</title>
<path fill="none" stroke="Green" stroke-width="2" d="M374.44,-295.12C345.09,-281.78 293.1,-258.15 263.8,-244.83"/>
</g>
<!-- 14&#45;&#45;17 -->
<g id="edge34" class="edge">
<title>14&#45;&#45;17</title>
<path fill="none" stroke="Green" stroke-width="2" d="M431.18,-71.7C431.18,-60.85 431.18,-46.92 431.18,-36.1"/>
</g>
<!-- 14&#45;&#45;16 -->
<g id="edge35" class="edge">
<title>14&#45;&#45;16</title>
<path fill="none" stroke="Green" stroke-width="2" d="M414.06,-75.83C397.79,-63.32 373.46,-44.6 357.22,-32.11"/>
</g>
<!-- 14&#45;&#45;18 -->
<g id="edge36" class="edge">
<title>14&#45;&#45;18</title>
<path fill="none" stroke="Green" stroke-width="2" d="M452.7,-78.82C480.76,-65.55 529.56,-42.47 557.63,-29.19"/>
</g>
<!-- 15&#45;&#45;20 -->
<g id="edge37" class="edge">
<title>15&#45;&#45;20</title>
<path fill="none" stroke="Green" stroke-width="2" d="M232.82,-216.99C216.88,-189.71 184.63,-134.55 168.63,-107.17"/>
</g>
<!-- 4 -->
<g id="node16" class="node">
<title>4</title>
<ellipse fill="none" stroke="black" cx="544.18" cy="-234" rx="27" ry="18"/>
<text text-anchor="middle" x="544.18" y="-230.3" font-family="Times New Roman,serif" font-size="14.00">4</text>
</g>
<!-- 4&#45;&#45;17 -->
<g id="edge15" class="edge">
<title>4&#45;&#45;17</title>
<path fill="none" stroke="Green" stroke-width="2" d="M532.13,-217.37C524.6,-207.12 515.06,-193.22 508.18,-180 484.48,-134.45 490.87,-117.55 467.18,-72 460.3,-58.78 450.76,-44.88 443.22,-34.63"/>
</g>
<!-- 4&#45;&#45;19 -->
<g id="edge16" class="edge">
<title>4&#45;&#45;19</title>
<path fill="none" stroke="Green" stroke-width="2" d="M555.83,-217.53C576.41,-190.22 618.96,-133.75 639.54,-106.45"/>
</g>
<!-- 8 -->
<g id="node17" class="node">
<title>8</title>
<ellipse fill="none" stroke="black" cx="544.18" cy="-162" rx="27" ry="18"/>
<text text-anchor="middle" x="544.18" y="-158.3" font-family="Times New Roman,serif" font-size="14.00">8</text>
</g>
<!-- 4&#45;&#45;8 -->
<g id="edge17" class="edge">
<title>4&#45;&#45;8</title>
<path fill="none" stroke="Green" stroke-width="2" d="M544.18,-215.7C544.18,-204.85 544.18,-190.92 544.18,-180.1"/>
</g>
<!-- 8&#45;&#45;17 -->
<g id="edge22" class="edge">
<title>8&#45;&#45;17</title>
<path fill="none" stroke="Green" stroke-width="2" d="M538.54,-144.28C531.6,-125.34 518.44,-94.25 500.18,-72 486.18,-54.96 465.71,-40.11 450.7,-30.51"/>
</g>
<!-- 8&#45;&#45;11 -->
<g id="edge23" class="edge">
<title>8&#45;&#45;11</title>
<path fill="none" stroke="Green" stroke-width="2" d="M520.31,-153.51C477.5,-140.07 388.13,-112.02 345.21,-98.54"/>
</g>
<!-- 9 -->
<g id="node20" class="node">
<title>9</title>
<ellipse fill="none" stroke="black" cx="579.18" cy="-90" rx="27" ry="18"/>
<text text-anchor="middle" x="579.18" y="-86.3" font-family="Times New Roman,serif" font-size="14.00">9</text>
</g>
<!-- 8&#45;&#45;9 -->
<g id="edge24" class="edge">
<title>8&#45;&#45;9</title>
<path fill="none" stroke="Green" stroke-width="2" d="M552.29,-144.76C557.87,-133.62 565.24,-118.87 570.86,-107.63"/>
</g>
<!-- 12&#45;&#45;16 -->
<g id="edge31" class="edge">
<title>12&#45;&#45;16</title>
<path fill="none" stroke="Green" stroke-width="2" d="M389.64,-144.43C378.91,-117.22 357.66,-63.33 346.84,-35.9"/>
</g>
<!-- 12&#45;&#45;14 -->
<g id="edge32" class="edge">
<title>12&#45;&#45;14</title>
<path fill="none" stroke="Green" stroke-width="2" d="M404.29,-144.76C409.87,-133.62 417.24,-118.87 422.86,-107.63"/>
</g>
<!-- 11&#45;&#45;16 -->
<g id="edge30" class="edge">
<title>11&#45;&#45;16</title>
<path fill="none" stroke="Green" stroke-width="2" d="M325.78,-72.05C328.76,-61.05 332.64,-46.76 335.62,-35.79"/>
</g>
<!-- 9&#45;&#45;18 -->
<g id="edge25" class="edge">
<title>9&#45;&#45;18</title>
<path fill="none" stroke="Green" stroke-width="2" d="M579.18,-71.7C579.18,-60.85 579.18,-46.92 579.18,-36.1"/>
</g>
</g>
</svg>
