<?xml version="1.0" encoding="UTF-8" standalone="no"?>
<!DOCTYPE svg PUBLIC "-//W3C//DTD SVG 1.1//EN"
 "http://www.w3.org/Graphics/SVG/1.1/DTD/svg11.dtd">
<!-- Generated by graphviz version 3.0.0 (20220226.1711)
 -->
<!-- Title: undirected Pages: 1 -->
<svg width="642pt" height="404pt"
 viewBox="0.00 0.00 642.00 404.00" xmlns="http://www.w3.org/2000/svg" xmlns:xlink="http://www.w3.org/1999/xlink">
<g id="graph0" class="graph" transform="scale(1 1) rotate(0) translate(4 400)">
<title>undirected</title>
<polygon fill="white" stroke="transparent" points="-4,4 -4,-400 638,-400 638,4 -4,4"/>
<!-- 1 -->
<g id="node1" class="node">
<title>1</title>
<ellipse fill="none" stroke="Green" stroke-width="2" cx="27" cy="-234" rx="27" ry="18"/>
<text text-anchor="middle" x="27" y="-230.3" font-family="Times New Roman,serif" font-size="14.00">1</text>
</g>
<!-- 5 -->
<g id="node2" class="node">
<title>5</title>
<ellipse fill="none" stroke="black" cx="82" cy="-162" rx="27" ry="18"/>
<text text-anchor="middle" x="82" y="-158.3" font-family="Times New Roman,serif" font-size="14.00">5</text>
</g>
<!-- 1&#45;&#45;5 -->
<g id="edge1" class="edge">
<title>1&#45;&#45;5</title>
<path fill="none" stroke="Green" stroke-width="2" d="M38.93,-217.81C48.16,-206.07 60.87,-189.89 70.09,-178.16"/>
</g>
<!-- 10 -->
<g id="node3" class="node">
<title>10</title>
<ellipse fill="none" stroke="black" cx="110" cy="-90" rx="27" ry="18"/>
<text text-anchor="middle" x="110" y="-86.3" font-family="Times New Roman,serif" font-size="14.00">10</text>
</g>
<!-- 1&#45;&#45;10 -->
<g id="edge2" class="edge">
<title>1&#45;&#45;10</title>
<path fill="none" stroke="Green" stroke-width="2" d="M27.37,-215.71C28.5,-196.82 32.49,-166.3 46,-144 56.76,-126.23 75.67,-111.68 90.15,-102.35"/>
</g>
<!-- 20 -->
<g id="node4" class="node">
<title>20</title>
<ellipse fill="none" stroke="black" cx="237" cy="-18" rx="27" ry="18"/>
<text text-anchor="middle" x="237" y="-14.3" font-family="Times New Roman,serif" font-size="14.00">20</text>
</g>
<!-- 1&#45;&#45;20 -->
<g id="edge3" class="edge">
<title>1&#45;&#45;20</title>
<path fill="none" stroke="Green" stroke-width="2" d="M24.74,-215.85C22.95,-197.62 21.78,-168.14 29,-144 39.81,-107.85 44.27,-95.23 74,-72 114.92,-40.03 175.79,-27.02 210.4,-21.97"/>
</g>
<!-- 5&#45;&#45;10 -->
<g id="edge14" class="edge">
<title>5&#45;&#45;10</title>
<path fill="none" stroke="Green" stroke-width="2" d="M88.64,-144.41C93.1,-133.25 98.96,-118.6 103.41,-107.47"/>
</g>
<!-- 16 -->
<g id="node14" class="node">
<title>16</title>
<ellipse fill="none" stroke="black" cx="362" cy="-90" rx="27" ry="18"/>
<text text-anchor="middle" x="362" y="-86.3" font-family="Times New Roman,serif" font-size="14.00">16</text>
</g>
<!-- 5&#45;&#45;16 -->
<g id="edge15" class="edge">
<title>5&#45;&#45;16</title>
<path fill="none" stroke="Green" stroke-width="2" d="M107.15,-155.19C164.18,-141.99 299.18,-110.72 309,-108 318.69,-105.32 329.25,-102.01 338.38,-99.03"/>
</g>
<!-- 2 -->
<g id="node5" class="node">
<title>2</title>
<ellipse fill="none" stroke="black" cx="507" cy="-378" rx="27" ry="18"/>
<text text-anchor="middle" x="507" y="-374.3" font-family="Times New Roman,serif" font-size="14.00">2</text>
</g>
<!-- 7 -->
<g id="node6" class="node">
<title>7</title>
<ellipse fill="none" stroke="black" cx="416" cy="-306" rx="27" ry="18"/>
<text text-anchor="middle" x="416" y="-302.3" font-family="Times New Roman,serif" font-size="14.00">7</text>
</g>
<!-- 2&#45;&#45;7 -->
<g id="edge4" class="edge">
<title>2&#45;&#45;7</title>
<path fill="none" stroke="Green" stroke-width="2" d="M489.88,-363.83C473.61,-351.32 449.28,-332.6 433.04,-320.11"/>
</g>
<!-- 12 -->
<g id="node7" class="node">
<title>12</title>
<ellipse fill="none" stroke="black" cx="480" cy="-234" rx="27" ry="18"/>
<text text-anchor="middle" x="480" y="-230.3" font-family="Times New Roman,serif" font-size="14.00">12</text>
</g>
<!-- 2&#45;&#45;12 -->
<g id="edge5" class="edge">
<title>2&#45;&#45;12</title>
<path fill="none" stroke="Green" stroke-width="2" d="M503.74,-359.87C498.55,-332.58 488.47,-279.52 483.27,-252.19"/>
</g>
<!-- 17 -->
<g id="node8" class="node">
<title>17</title>
<ellipse fill="none" stroke="black" cx="535" cy="-306" rx="27" ry="18"/>
<text text-anchor="middle" x="535" y="-302.3" font-family="Times New Roman,serif" font-size="14.00">17</text>
</g>
<!-- 2&#45;&#45;17 -->
<g id="edge6" class="edge">
<title>2&#45;&#45;17</title>
<path fill="none" stroke="Green" stroke-width="2" d="M513.64,-360.41C518.1,-349.25 523.96,-334.6 528.41,-323.47"/>
</g>
<!-- 9 -->
<g id="node9" class="node">
<title>9</title>
<ellipse fill="none" stroke="black" cx="607" cy="-306" rx="27" ry="18"/>
<text text-anchor="middle" x="607" y="-302.3" font-family="Times New Roman,serif" font-size="14.00">9</text>
</g>
<!-- 2&#45;&#45;9 -->
<g id="edge7" class="edge">
<title>2&#45;&#45;9</title>
<path fill="none" stroke="Green" stroke-width="2" d="M524.88,-364.49C542.97,-351.82 570.78,-332.35 588.94,-319.64"/>
</g>
<!-- 7&#45;&#45;12 -->
<g id="edge18" class="edge">
<title>7&#45;&#45;12</title>
<path fill="none" stroke="Green" stroke-width="2" d="M429.57,-290.15C440.43,-278.28 455.59,-261.7 466.45,-249.82"/>
</g>
<!-- 8 -->
<g id="node16" class="node">
<title>8</title>
<ellipse fill="none" stroke="black" cx="408" cy="-234" rx="27" ry="18"/>
<text text-anchor="middle" x="408" y="-230.3" font-family="Times New Roman,serif" font-size="14.00">8</text>
</g>
<!-- 7&#45;&#45;8 -->
<g id="edge19" class="edge">
<title>7&#45;&#45;8</title>
<path fill="none" stroke="Green" stroke-width="2" d="M414.02,-287.7C412.78,-276.85 411.19,-262.92 409.95,-252.1"/>
</g>
<!-- 13 -->
<g id="node17" class="node">
<title>13</title>
<ellipse fill="none" stroke="black" cx="480" cy="-162" rx="27" ry="18"/>
<text text-anchor="middle" x="480" y="-158.3" font-family="Times New Roman,serif" font-size="14.00">13</text>
</g>
<!-- 7&#45;&#45;13 -->
<g id="edge20" class="edge">
<title>7&#45;&#45;13</title>
<path fill="none" stroke="Green" stroke-width="2" d="M400.15,-290.98C381.87,-273.05 356.23,-241.31 372,-216 373.26,-213.98 427.61,-187.9 458.72,-173.1"/>
</g>
<!-- 12&#45;&#45;13 -->
<g id="edge22" class="edge">
<title>12&#45;&#45;13</title>
<path fill="none" stroke="Green" stroke-width="2" d="M480,-215.7C480,-204.85 480,-190.92 480,-180.1"/>
</g>
<!-- 19 -->
<g id="node15" class="node">
<title>19</title>
<ellipse fill="none" stroke="black" cx="417" cy="-18" rx="27" ry="18"/>
<text text-anchor="middle" x="417" y="-14.3" font-family="Times New Roman,serif" font-size="14.00">19</text>
</g>
<!-- 17&#45;&#45;19 -->
<g id="edge29" class="edge">
<title>17&#45;&#45;19</title>
<path fill="none" stroke="Green" stroke-width="2" d="M535.97,-287.78C537.04,-257.47 536.4,-193.13 516,-144 496.78,-97.73 455.25,-54.4 432.56,-32.98"/>
</g>
<!-- 3 -->
<g id="node10" class="node">
<title>3</title>
<ellipse fill="none" stroke="black" cx="192" cy="-234" rx="27" ry="18"/>
<text text-anchor="middle" x="192" y="-230.3" font-family="Times New Roman,serif" font-size="14.00">3</text>
</g>
<!-- 3&#45;&#45;5 -->
<g id="edge8" class="edge">
<title>3&#45;&#45;5</title>
<path fill="none" stroke="Green" stroke-width="2" d="M172.84,-220.81C152.65,-207.96 121.05,-187.85 100.94,-175.05"/>
</g>
<!-- 3&#45;&#45;10 -->
<g id="edge9" class="edge">
<title>3&#45;&#45;10</title>
<path fill="none" stroke="Green" stroke-width="2" d="M180.79,-217.55C173.41,-207.15 163.74,-193 156,-180 141.32,-155.34 126.46,-125.49 117.74,-107.39"/>
</g>
<!-- 11 -->
<g id="node11" class="node">
<title>11</title>
<ellipse fill="none" stroke="black" cx="264" cy="-162" rx="27" ry="18"/>
<text text-anchor="middle" x="264" y="-158.3" font-family="Times New Roman,serif" font-size="14.00">11</text>
</g>
<!-- 3&#45;&#45;11 -->
<g id="edge10" class="edge">
<title>3&#45;&#45;11</title>
<path fill="none" stroke="Green" stroke-width="2" d="M206.57,-218.83C218.98,-206.77 236.73,-189.51 249.2,-177.38"/>
</g>
<!-- 4 -->
<g id="node12" class="node">
<title>4</title>
<ellipse fill="none" stroke="black" cx="192" cy="-162" rx="27" ry="18"/>
<text text-anchor="middle" x="192" y="-158.3" font-family="Times New Roman,serif" font-size="14.00">4</text>
</g>
<!-- 3&#45;&#45;4 -->
<g id="edge11" class="edge">
<title>3&#45;&#45;4</title>
<path fill="none" stroke="Green" stroke-width="2" d="M192,-215.7C192,-204.85 192,-190.92 192,-180.1"/>
</g>
<!-- 6 -->
<g id="node13" class="node">
<title>6</title>
<ellipse fill="none" stroke="black" cx="408" cy="-162" rx="27" ry="18"/>
<text text-anchor="middle" x="408" y="-158.3" font-family="Times New Roman,serif" font-size="14.00">6</text>
</g>
<!-- 3&#45;&#45;6 -->
<g id="edge12" class="edge">
<title>3&#45;&#45;6</title>
<path fill="none" stroke="Green" stroke-width="2" d="M217.15,-226.91C252.32,-218.1 317.96,-200.57 372,-180 376.91,-178.13 382.08,-175.87 386.92,-173.62"/>
</g>
<!-- 18 -->
<g id="node18" class="node">
<title>18</title>
<ellipse fill="none" stroke="black" cx="273" cy="-90" rx="27" ry="18"/>
<text text-anchor="middle" x="273" y="-86.3" font-family="Times New Roman,serif" font-size="14.00">18</text>
</g>
<!-- 11&#45;&#45;18 -->
<g id="edge21" class="edge">
<title>11&#45;&#45;18</title>
<path fill="none" stroke="Green" stroke-width="2" d="M266.18,-144.05C267.57,-133.21 269.38,-119.18 270.78,-108.28"/>
</g>
<!-- 4&#45;&#45;10 -->
<g id="edge13" class="edge">
<title>4&#45;&#45;10</title>
<path fill="none" stroke="Green" stroke-width="2" d="M175.8,-147.17C161.33,-134.82 140.26,-116.83 125.89,-104.56"/>
</g>
<!-- 6&#45;&#45;16 -->
<g id="edge16" class="edge">
<title>6&#45;&#45;16</title>
<path fill="none" stroke="Green" stroke-width="2" d="M397.56,-145.12C390.03,-133.66 379.92,-118.26 372.4,-106.82"/>
</g>
<!-- 6&#45;&#45;19 -->
<g id="edge17" class="edge">
<title>6&#45;&#45;19</title>
<path fill="none" stroke="Green" stroke-width="2" d="M409.09,-143.87C410.82,-116.58 414.18,-63.52 415.91,-36.19"/>
</g>
<!-- 16&#45;&#45;19 -->
<g id="edge28" class="edge">
<title>16&#45;&#45;19</title>
<path fill="none" stroke="Green" stroke-width="2" d="M373.93,-73.81C383.16,-62.07 395.87,-45.89 405.09,-34.16"/>
</g>
<!-- 13&#45;&#45;20 -->
<g id="edge23" class="edge">
<title>13&#45;&#45;20</title>
<path fill="none" stroke="Green" stroke-width="2" d="M469.37,-145.21C455.26,-125.41 428.56,-91.68 398,-72 355.08,-44.36 296.38,-29.84 263.01,-23.35"/>
</g>
<!-- 13&#45;&#45;16 -->
<g id="edge24" class="edge">
<title>13&#45;&#45;16</title>
<path fill="none" stroke="Green" stroke-width="2" d="M460.51,-149.44C438.65,-136.47 403.39,-115.55 381.51,-102.58"/>
</g>
<!-- 18&#45;&#45;20 -->
<g id="edge30" class="edge">
<title>18&#45;&#45;20</title>
<path fill="none" stroke="Green" stroke-width="2" d="M264.65,-72.76C258.83,-61.46 251.11,-46.44 245.3,-35.15"/>
</g>
<!-- 14 -->
<g id="node19" class="node">
<title>14</title>
<ellipse fill="none" stroke="black" cx="201" cy="-90" rx="27" ry="18"/>
<text text-anchor="middle" x="201" y="-86.3" font-family="Times New Roman,serif" font-size="14.00">14</text>
</g>
<!-- 14&#45;&#45;20 -->
<g id="edge25" class="edge">
<title>14&#45;&#45;20</title>
<path fill="none" stroke="Green" stroke-width="2" d="M209.35,-72.76C215.17,-61.46 222.89,-46.44 228.7,-35.15"/>
</g>
<!-- 15 -->
<g id="node20" class="node">
<title>15</title>
<ellipse fill="none" stroke="black" cx="336" cy="-162" rx="27" ry="18"/>
<text text-anchor="middle" x="336" y="-158.3" font-family="Times New Roman,serif" font-size="14.00">15</text>
</g>
<!-- 15&#45;&#45;16 -->
<g id="edge26" class="edge">
<title>15&#45;&#45;16</title>
<path fill="none" stroke="Green" stroke-width="2" d="M342.16,-144.41C346.25,-133.41 351.59,-119.03 355.7,-107.96"/>
</g>
<!-- 15&#45;&#45;18 -->
<g id="edge27" class="edge">
<title>15&#45;&#45;18</title>
<path fill="none" stroke="Green" stroke-width="2" d="M322.64,-146.15C311.95,-134.28 297.03,-117.7 286.34,-105.82"/>
</g>
</g>
</svg>
