<?xml version="1.0" encoding="UTF-8" standalone="no"?>
<!DOCTYPE svg PUBLIC "-//W3C//DTD SVG 1.1//EN"
 "http://www.w3.org/Graphics/SVG/1.1/DTD/svg11.dtd">
<!-- Generated by graphviz version 3.0.0 (20220226.1711)
 -->
<!-- Title: undirected Pages: 1 -->
<svg width="735pt" height="260pt"
 viewBox="0.00 0.00 734.81 260.00" xmlns="http://www.w3.org/2000/svg" xmlns:xlink="http://www.w3.org/1999/xlink">
<g id="graph0" class="graph" transform="scale(1 1) rotate(0) translate(4 256)">
<title>undirected</title>
<polygon fill="white" stroke="transparent" points="-4,4 -4,-256 730.81,-256 730.81,4 -4,4"/>
<!-- 1 &#160;1:0 -->
<g id="node1" class="node">
<title>1 &#160;1:0</title>
<ellipse fill="none" stroke="Green" stroke-width="2" cx="400.26" cy="-162" rx="30.59" ry="18"/>
<text text-anchor="middle" x="400.26" y="-158.3" font-family="Times New Roman,serif" font-size="14.00">1 &#160;1:0</text>
</g>
<!-- 1 &#160;13:1 -->
<g id="node2" class="node">
<title>1 &#160;13:1</title>
<ellipse fill="none" stroke="black" cx="339.26" cy="-90" rx="35.19" ry="18"/>
<text text-anchor="middle" x="339.26" y="-86.3" font-family="Times New Roman,serif" font-size="14.00">1 &#160;13:1</text>
</g>
<!-- 1 &#160;1:0&#45;&#45;1 &#160;13:1 -->
<g id="edge1" class="edge">
<title>1 &#160;1:0&#45;&#45;1 &#160;13:1</title>
<path fill="none" stroke="Green" stroke-width="2" d="M386.73,-145.46C376.76,-134.03 363.24,-118.52 353.19,-106.98"/>
</g>
<!-- 1 &#160;15:1 -->
<g id="node3" class="node">
<title>1 &#160;15:1</title>
<ellipse fill="none" stroke="black" cx="370.26" cy="-18" rx="35.19" ry="18"/>
<text text-anchor="middle" x="370.26" y="-14.3" font-family="Times New Roman,serif" font-size="14.00">1 &#160;15:1</text>
</g>
<!-- 1 &#160;1:0&#45;&#45;1 &#160;15:1 -->
<g id="edge2" class="edge">
<title>1 &#160;1:0&#45;&#45;1 &#160;15:1</title>
<path fill="none" stroke="Green" stroke-width="2" d="M397.27,-143.88C394.06,-125.93 388.69,-96.9 383.26,-72 380.64,-59.97 377.33,-46.49 374.7,-36.13"/>
</g>
<!-- 1 &#160;18:2 -->
<g id="node19" class="node">
<title>1 &#160;18:2</title>
<ellipse fill="none" stroke="black" cx="251.26" cy="-18" rx="35.19" ry="18"/>
<text text-anchor="middle" x="251.26" y="-14.3" font-family="Times New Roman,serif" font-size="14.00">1 &#160;18:2</text>
</g>
<!-- 1 &#160;13:1&#45;&#45;1 &#160;18:2 -->
<g id="edge23" class="edge">
<title>1 &#160;13:1&#45;&#45;1 &#160;18:2</title>
<path fill="none" stroke="Green" stroke-width="2" d="M321.03,-74.5C305.93,-62.48 284.57,-45.49 269.47,-33.49"/>
</g>
<!-- 1 &#160;2:4 -->
<g id="node4" class="node">
<title>1 &#160;2:4</title>
<ellipse fill="none" stroke="black" cx="47.26" cy="-234" rx="30.59" ry="18"/>
<text text-anchor="middle" x="47.26" y="-230.3" font-family="Times New Roman,serif" font-size="14.00">1 &#160;2:4</text>
</g>
<!-- 1 &#160;8:3 -->
<g id="node5" class="node">
<title>1 &#160;8:3</title>
<ellipse fill="none" stroke="black" cx="106.26" cy="-162" rx="30.59" ry="18"/>
<text text-anchor="middle" x="106.26" y="-158.3" font-family="Times New Roman,serif" font-size="14.00">1 &#160;8:3</text>
</g>
<!-- 1 &#160;2:4&#45;&#45;1 &#160;8:3 -->
<g id="edge3" class="edge">
<title>1 &#160;2:4&#45;&#45;1 &#160;8:3</title>
<path fill="none" stroke="Green" stroke-width="2" d="M60.36,-217.46C70.13,-205.86 83.44,-190.08 93.21,-178.49"/>
</g>
<!-- 1 &#160;14:3 -->
<g id="node6" class="node">
<title>1 &#160;14:3</title>
<ellipse fill="none" stroke="black" cx="129.26" cy="-90" rx="35.19" ry="18"/>
<text text-anchor="middle" x="129.26" y="-86.3" font-family="Times New Roman,serif" font-size="14.00">1 &#160;14:3</text>
</g>
<!-- 1 &#160;2:4&#45;&#45;1 &#160;14:3 -->
<g id="edge4" class="edge">
<title>1 &#160;2:4&#45;&#45;1 &#160;14:3</title>
<path fill="none" stroke="Green" stroke-width="2" d="M47.67,-215.73C48.83,-196.86 52.84,-166.35 66.26,-144 76.2,-127.46 93.17,-113.62 107,-104.24"/>
</g>
<!-- 1 &#160;20:4 -->
<g id="node7" class="node">
<title>1 &#160;20:4</title>
<ellipse fill="none" stroke="black" cx="45.26" cy="-18" rx="35.19" ry="18"/>
<text text-anchor="middle" x="45.26" y="-14.3" font-family="Times New Roman,serif" font-size="14.00">1 &#160;20:4</text>
</g>
<!-- 1 &#160;2:4&#45;&#45;1 &#160;20:4 -->
<g id="edge5" class="edge">
<title>1 &#160;2:4&#45;&#45;1 &#160;20:4</title>
<path fill="none" stroke="Green" stroke-width="2" d="M36.85,-216.79C19.41,-187.52 -12.17,-124.04 5.26,-72 10.02,-57.79 20.26,-44.34 29.19,-34.55"/>
</g>
<!-- 1 &#160;8:3&#45;&#45;1 &#160;14:3 -->
<g id="edge14" class="edge">
<title>1 &#160;8:3&#45;&#45;1 &#160;14:3</title>
<path fill="none" stroke="Green" stroke-width="2" d="M111.83,-144.05C115.45,-133.05 120.14,-118.76 123.75,-107.79"/>
</g>
<!-- 1 &#160;12:2 -->
<g id="node17" class="node">
<title>1 &#160;12:2</title>
<ellipse fill="none" stroke="black" cx="251.26" cy="-90" rx="35.19" ry="18"/>
<text text-anchor="middle" x="251.26" y="-86.3" font-family="Times New Roman,serif" font-size="14.00">1 &#160;12:2</text>
</g>
<!-- 1 &#160;8:3&#45;&#45;1 &#160;12:2 -->
<g id="edge15" class="edge">
<title>1 &#160;8:3&#45;&#45;1 &#160;12:2</title>
<path fill="none" stroke="Green" stroke-width="2" d="M129.24,-149.91C155.75,-137.11 199.19,-116.14 226.45,-102.98"/>
</g>
<!-- 1 &#160;14:3&#45;&#45;1 &#160;20:4 -->
<g id="edge24" class="edge">
<title>1 &#160;14:3&#45;&#45;1 &#160;20:4</title>
<path fill="none" stroke="Green" stroke-width="2" d="M111.45,-74.15C97.19,-62.28 77.3,-45.7 63.05,-33.82"/>
</g>
<!-- 1 &#160;14:3&#45;&#45;1 &#160;18:2 -->
<g id="edge25" class="edge">
<title>1 &#160;14:3&#45;&#45;1 &#160;18:2</title>
<path fill="none" stroke="Green" stroke-width="2" d="M151.92,-76C173.84,-63.42 206.85,-44.48 228.72,-31.93"/>
</g>
<!-- 1 &#160;3:2 -->
<g id="node8" class="node">
<title>1 &#160;3:2</title>
<ellipse fill="none" stroke="black" cx="544.26" cy="-234" rx="30.59" ry="18"/>
<text text-anchor="middle" x="544.26" y="-230.3" font-family="Times New Roman,serif" font-size="14.00">1 &#160;3:2</text>
</g>
<!-- 1 &#160;3:2&#45;&#45;1 &#160;13:1 -->
<g id="edge6" class="edge">
<title>1 &#160;3:2&#45;&#45;1 &#160;13:1</title>
<path fill="none" stroke="Green" stroke-width="2" d="M516.93,-225.9C467.04,-212.84 365.78,-185.79 360.26,-180 341.76,-160.57 338.53,-128.01 338.48,-108.12"/>
</g>
<!-- 1 &#160;16:3 -->
<g id="node9" class="node">
<title>1 &#160;16:3</title>
<ellipse fill="none" stroke="black" cx="560.26" cy="-162" rx="35.19" ry="18"/>
<text text-anchor="middle" x="560.26" y="-158.3" font-family="Times New Roman,serif" font-size="14.00">1 &#160;16:3</text>
</g>
<!-- 1 &#160;3:2&#45;&#45;1 &#160;16:3 -->
<g id="edge7" class="edge">
<title>1 &#160;3:2&#45;&#45;1 &#160;16:3</title>
<path fill="none" stroke="Green" stroke-width="2" d="M548.14,-216.05C550.61,-205.21 553.82,-191.18 556.31,-180.28"/>
</g>
<!-- 1 &#160;17:4 -->
<g id="node12" class="node">
<title>1 &#160;17:4</title>
<ellipse fill="none" stroke="black" cx="497.26" cy="-90" rx="35.19" ry="18"/>
<text text-anchor="middle" x="497.26" y="-86.3" font-family="Times New Roman,serif" font-size="14.00">1 &#160;17:4</text>
</g>
<!-- 1 &#160;16:3&#45;&#45;1 &#160;17:4 -->
<g id="edge26" class="edge">
<title>1 &#160;16:3&#45;&#45;1 &#160;17:4</title>
<path fill="none" stroke="Green" stroke-width="2" d="M546.28,-145.46C535.99,-134.03 522.03,-118.52 511.64,-106.98"/>
</g>
<!-- 1 &#160;4:5 -->
<g id="node10" class="node">
<title>1 &#160;4:5</title>
<ellipse fill="none" stroke="black" cx="45.26" cy="-90" rx="30.59" ry="18"/>
<text text-anchor="middle" x="45.26" y="-86.3" font-family="Times New Roman,serif" font-size="14.00">1 &#160;4:5</text>
</g>
<!-- 1 &#160;4:5&#45;&#45;1 &#160;20:4 -->
<g id="edge8" class="edge">
<title>1 &#160;4:5&#45;&#45;1 &#160;20:4</title>
<path fill="none" stroke="Green" stroke-width="2" d="M45.26,-71.7C45.26,-60.85 45.26,-46.92 45.26,-36.1"/>
</g>
<!-- 1 &#160;5:4 -->
<g id="node11" class="node">
<title>1 &#160;5:4</title>
<ellipse fill="none" stroke="black" cx="434.26" cy="-234" rx="30.59" ry="18"/>
<text text-anchor="middle" x="434.26" y="-230.3" font-family="Times New Roman,serif" font-size="14.00">1 &#160;5:4</text>
</g>
<!-- 1 &#160;5:4&#45;&#45;1 &#160;17:4 -->
<g id="edge9" class="edge">
<title>1 &#160;5:4&#45;&#45;1 &#160;17:4</title>
<path fill="none" stroke="Green" stroke-width="2" d="M447.87,-217.76C456.25,-207.67 466.62,-193.79 473.26,-180 484.65,-156.35 491.3,-126.48 494.61,-108.06"/>
</g>
<!-- 1 &#160;10:3 -->
<g id="node13" class="node">
<title>1 &#160;10:3</title>
<ellipse fill="none" stroke="black" cx="278.26" cy="-162" rx="35.19" ry="18"/>
<text text-anchor="middle" x="278.26" y="-158.3" font-family="Times New Roman,serif" font-size="14.00">1 &#160;10:3</text>
</g>
<!-- 1 &#160;5:4&#45;&#45;1 &#160;10:3 -->
<g id="edge10" class="edge">
<title>1 &#160;5:4&#45;&#45;1 &#160;10:3</title>
<path fill="none" stroke="Green" stroke-width="2" d="M410.57,-222.37C381.76,-209.44 333.33,-187.71 303.74,-174.43"/>
</g>
<!-- 1 &#160;10:3&#45;&#45;1 &#160;12:2 -->
<g id="edge20" class="edge">
<title>1 &#160;10:3&#45;&#45;1 &#160;12:2</title>
<path fill="none" stroke="Green" stroke-width="2" d="M271.73,-144.05C267.48,-133.05 261.97,-118.76 257.74,-107.79"/>
</g>
<!-- 1 &#160;6:4 -->
<g id="node14" class="node">
<title>1 &#160;6:4</title>
<ellipse fill="none" stroke="black" cx="190.26" cy="-234" rx="30.59" ry="18"/>
<text text-anchor="middle" x="190.26" y="-230.3" font-family="Times New Roman,serif" font-size="14.00">1 &#160;6:4</text>
</g>
<!-- 1 &#160;6:4&#45;&#45;1 &#160;8:3 -->
<g id="edge11" class="edge">
<title>1 &#160;6:4&#45;&#45;1 &#160;8:3</title>
<path fill="none" stroke="Green" stroke-width="2" d="M173.26,-218.83C158.69,-206.69 137.8,-189.28 123.24,-177.14"/>
</g>
<!-- 1 &#160;6:4&#45;&#45;1 &#160;10:3 -->
<g id="edge12" class="edge">
<title>1 &#160;6:4&#45;&#45;1 &#160;10:3</title>
<path fill="none" stroke="Green" stroke-width="2" d="M207.65,-219.17C222.78,-207.14 244.63,-189.76 260,-177.52"/>
</g>
<!-- 1 &#160;11:5 -->
<g id="node15" class="node">
<title>1 &#160;11:5</title>
<ellipse fill="none" stroke="black" cx="190.26" cy="-162" rx="35.19" ry="18"/>
<text text-anchor="middle" x="190.26" y="-158.3" font-family="Times New Roman,serif" font-size="14.00">1 &#160;11:5</text>
</g>
<!-- 1 &#160;6:4&#45;&#45;1 &#160;11:5 -->
<g id="edge13" class="edge">
<title>1 &#160;6:4&#45;&#45;1 &#160;11:5</title>
<path fill="none" stroke="Green" stroke-width="2" d="M190.26,-215.7C190.26,-204.85 190.26,-190.92 190.26,-180.1"/>
</g>
<!-- 2 &#160;7: -->
<g id="node16" class="node">
<title>2 &#160;7:</title>
<ellipse fill="none" stroke="black" cx="620.26" cy="-234" rx="27" ry="18"/>
<text text-anchor="middle" x="620.26" y="-230.3" font-family="Times New Roman,serif" font-size="14.00">2 &#160;7:</text>
</g>
<!-- 1 &#160;12:2&#45;&#45;1 &#160;15:1 -->
<g id="edge21" class="edge">
<title>1 &#160;12:2&#45;&#45;1 &#160;15:1</title>
<path fill="none" stroke="Green" stroke-width="2" d="M273.37,-76C294.61,-63.5 326.54,-44.72 347.87,-32.17"/>
</g>
<!-- 1 &#160;12:2&#45;&#45;1 &#160;18:2 -->
<g id="edge22" class="edge">
<title>1 &#160;12:2&#45;&#45;1 &#160;18:2</title>
<path fill="none" stroke="Green" stroke-width="2" d="M251.26,-71.7C251.26,-60.85 251.26,-46.92 251.26,-36.1"/>
</g>
<!-- 1 &#160;9:4 -->
<g id="node18" class="node">
<title>1 &#160;9:4</title>
<ellipse fill="none" stroke="black" cx="293.26" cy="-234" rx="30.59" ry="18"/>
<text text-anchor="middle" x="293.26" y="-230.3" font-family="Times New Roman,serif" font-size="14.00">1 &#160;9:4</text>
</g>
<!-- 1 &#160;9:4&#45;&#45;1 &#160;16:3 -->
<g id="edge16" class="edge">
<title>1 &#160;9:4&#45;&#45;1 &#160;16:3</title>
<path fill="none" stroke="Green" stroke-width="2" d="M320.83,-225.77C371.06,-212.6 477.14,-184.79 529.58,-171.04"/>
</g>
<!-- 1 &#160;9:4&#45;&#45;1 &#160;17:4 -->
<g id="edge17" class="edge">
<title>1 &#160;9:4&#45;&#45;1 &#160;17:4</title>
<path fill="none" stroke="Green" stroke-width="2" d="M322.52,-228.26C354.32,-221.87 405.28,-207.92 440.26,-180 464.64,-160.54 481.78,-127.68 490.54,-107.8"/>
</g>
<!-- 1 &#160;9:4&#45;&#45;1 &#160;10:3 -->
<g id="edge18" class="edge">
<title>1 &#160;9:4&#45;&#45;1 &#160;10:3</title>
<path fill="none" stroke="Green" stroke-width="2" d="M289.63,-216.05C287.31,-205.21 284.3,-191.18 281.96,-180.28"/>
</g>
<!-- 1 &#160;9:4&#45;&#45;1 &#160;11:5 -->
<g id="edge19" class="edge">
<title>1 &#160;9:4&#45;&#45;1 &#160;11:5</title>
<path fill="none" stroke="Green" stroke-width="2" d="M273.89,-219.83C255.82,-207.56 228.98,-189.31 210.61,-176.83"/>
</g>
<!-- 3 &#160;19: -->
<g id="node20" class="node">
<title>3 &#160;19:</title>
<ellipse fill="none" stroke="black" cx="696.26" cy="-234" rx="30.59" ry="18"/>
<text text-anchor="middle" x="696.26" y="-230.3" font-family="Times New Roman,serif" font-size="14.00">3 &#160;19:</text>
</g>
</g>
</svg>
