<?xml version="1.0" encoding="UTF-8" standalone="no"?>
<!DOCTYPE svg PUBLIC "-//W3C//DTD SVG 1.1//EN"
 "http://www.w3.org/Graphics/SVG/1.1/DTD/svg11.dtd">
<!-- Generated by graphviz version 3.0.0 (20220226.1711)
 -->
<!-- Title: simple_tree Pages: 1 -->
<svg width="509pt" height="501pt"
 viewBox="0.00 0.00 508.97 500.67" xmlns="http://www.w3.org/2000/svg" xmlns:xlink="http://www.w3.org/1999/xlink">
<g id="graph0" class="graph" transform="scale(1 1) rotate(0) translate(4 496.67)">
<title>simple_tree</title>
<polygon fill="white" stroke="transparent" points="-4,4 -4,-496.67 504.97,-496.67 504.97,4 -4,4"/>
<!-- index:1
comp:
value:
lcc:0.20 -->
<g id="node1" class="node">
<title>index:1
comp:
value:
lcc:0.20</title>
<ellipse fill="none" stroke="black" cx="248.43" cy="-48.08" rx="42.35" ry="48.17"/>
<text text-anchor="middle" x="248.43" y="-66.88" font-family="Times New Roman,serif" font-size="14.00">index:1</text>
<text text-anchor="middle" x="248.43" y="-51.88" font-family="Times New Roman,serif" font-size="14.00">comp:</text>
<text text-anchor="middle" x="248.43" y="-36.88" font-family="Times New Roman,serif" font-size="14.00">value:</text>
<text text-anchor="middle" x="248.43" y="-21.88" font-family="Times New Roman,serif" font-size="14.00">lcc:0.20</text>
</g>
<!-- index:2
comp:
value:
lcc:0.00 -->
<g id="node2" class="node">
<title>index:2
comp:
value:
lcc:0.00</title>
<ellipse fill="none" stroke="black" cx="42.43" cy="-180.25" rx="42.35" ry="48.17"/>
<text text-anchor="middle" x="42.43" y="-199.05" font-family="Times New Roman,serif" font-size="14.00">index:2</text>
<text text-anchor="middle" x="42.43" y="-184.05" font-family="Times New Roman,serif" font-size="14.00">comp:</text>
<text text-anchor="middle" x="42.43" y="-169.05" font-family="Times New Roman,serif" font-size="14.00">value:</text>
<text text-anchor="middle" x="42.43" y="-154.05" font-family="Times New Roman,serif" font-size="14.00">lcc:0.00</text>
</g>
<!-- index:2
comp:
value:
lcc:0.00&#45;&gt;index:1
comp:
value:
lcc:0.20 -->
<g id="edge1" class="edge">
<title>index:2
comp:
value:
lcc:0.00&#45;&gt;index:1
comp:
value:
lcc:0.20</title>
<path fill="none" stroke="black" d="M74.43,-148.1C80.82,-142.51 87.66,-136.95 94.43,-132.17 127.81,-108.57 168.66,-86.82 199.89,-71.5"/>
<polygon fill="black" stroke="black" points="201.79,-74.47 209.25,-66.96 198.73,-68.17 201.79,-74.47"/>
</g>
<!-- index:3
comp:
value:
lcc:0.00 -->
<g id="node3" class="node">
<title>index:3
comp:
value:
lcc:0.00</title>
<ellipse fill="none" stroke="black" cx="351.43" cy="-444.58" rx="42.35" ry="48.17"/>
<text text-anchor="middle" x="351.43" y="-463.38" font-family="Times New Roman,serif" font-size="14.00">index:3</text>
<text text-anchor="middle" x="351.43" y="-448.38" font-family="Times New Roman,serif" font-size="14.00">comp:</text>
<text text-anchor="middle" x="351.43" y="-433.38" font-family="Times New Roman,serif" font-size="14.00">value:</text>
<text text-anchor="middle" x="351.43" y="-418.38" font-family="Times New Roman,serif" font-size="14.00">lcc:0.00</text>
</g>
<!-- index:4
comp:
value:
lcc:0.00 -->
<g id="node4" class="node">
<title>index:4
comp:
value:
lcc:0.00</title>
<ellipse fill="none" stroke="black" cx="248.43" cy="-444.58" rx="42.35" ry="48.17"/>
<text text-anchor="middle" x="248.43" y="-463.38" font-family="Times New Roman,serif" font-size="14.00">index:4</text>
<text text-anchor="middle" x="248.43" y="-448.38" font-family="Times New Roman,serif" font-size="14.00">comp:</text>
<text text-anchor="middle" x="248.43" y="-433.38" font-family="Times New Roman,serif" font-size="14.00">value:</text>
<text text-anchor="middle" x="248.43" y="-418.38" font-family="Times New Roman,serif" font-size="14.00">lcc:0.00</text>
</g>
<!-- index:8
comp:
value:
lcc:0.00 -->
<g id="node5" class="node">
<title>index:8
comp:
value:
lcc:0.00</title>
<ellipse fill="none" stroke="black" cx="248.43" cy="-312.42" rx="42.35" ry="48.17"/>
<text text-anchor="middle" x="248.43" y="-331.22" font-family="Times New Roman,serif" font-size="14.00">index:8</text>
<text text-anchor="middle" x="248.43" y="-316.22" font-family="Times New Roman,serif" font-size="14.00">comp:</text>
<text text-anchor="middle" x="248.43" y="-301.22" font-family="Times New Roman,serif" font-size="14.00">value:</text>
<text text-anchor="middle" x="248.43" y="-286.22" font-family="Times New Roman,serif" font-size="14.00">lcc:0.00</text>
</g>
<!-- index:4
comp:
value:
lcc:0.00&#45;&gt;index:8
comp:
value:
lcc:0.00 -->
<g id="edge2" class="edge">
<title>index:4
comp:
value:
lcc:0.00&#45;&gt;index:8
comp:
value:
lcc:0.00</title>
<path fill="none" stroke="black" d="M248.43,-396.22C248.43,-387.95 248.43,-379.27 248.43,-370.77"/>
<polygon fill="black" stroke="black" points="251.93,-370.52 248.43,-360.52 244.93,-370.52 251.93,-370.52"/>
</g>
<!-- index:7
comp:
value:
lcc:0.33 -->
<g id="node8" class="node">
<title>index:7
comp:
value:
lcc:0.33</title>
<ellipse fill="none" stroke="black" cx="248.43" cy="-180.25" rx="42.35" ry="48.17"/>
<text text-anchor="middle" x="248.43" y="-199.05" font-family="Times New Roman,serif" font-size="14.00">index:7</text>
<text text-anchor="middle" x="248.43" y="-184.05" font-family="Times New Roman,serif" font-size="14.00">comp:</text>
<text text-anchor="middle" x="248.43" y="-169.05" font-family="Times New Roman,serif" font-size="14.00">value:</text>
<text text-anchor="middle" x="248.43" y="-154.05" font-family="Times New Roman,serif" font-size="14.00">lcc:0.33</text>
</g>
<!-- index:8
comp:
value:
lcc:0.00&#45;&gt;index:7
comp:
value:
lcc:0.33 -->
<g id="edge6" class="edge">
<title>index:8
comp:
value:
lcc:0.00&#45;&gt;index:7
comp:
value:
lcc:0.33</title>
<path fill="none" stroke="black" d="M248.43,-264.05C248.43,-255.79 248.43,-247.1 248.43,-238.6"/>
<polygon fill="black" stroke="black" points="251.93,-238.36 248.43,-228.36 244.93,-238.36 251.93,-238.36"/>
</g>
<!-- index:5
comp:
value:
lcc:0.00 -->
<g id="node6" class="node">
<title>index:5
comp:
value:
lcc:0.00</title>
<ellipse fill="none" stroke="black" cx="145.43" cy="-312.42" rx="42.35" ry="48.17"/>
<text text-anchor="middle" x="145.43" y="-331.22" font-family="Times New Roman,serif" font-size="14.00">index:5</text>
<text text-anchor="middle" x="145.43" y="-316.22" font-family="Times New Roman,serif" font-size="14.00">comp:</text>
<text text-anchor="middle" x="145.43" y="-301.22" font-family="Times New Roman,serif" font-size="14.00">value:</text>
<text text-anchor="middle" x="145.43" y="-286.22" font-family="Times New Roman,serif" font-size="14.00">lcc:0.00</text>
</g>
<!-- index:6
comp:
value:
lcc:0.33 -->
<g id="node7" class="node">
<title>index:6
comp:
value:
lcc:0.33</title>
<ellipse fill="none" stroke="black" cx="145.43" cy="-180.25" rx="42.35" ry="48.17"/>
<text text-anchor="middle" x="145.43" y="-199.05" font-family="Times New Roman,serif" font-size="14.00">index:6</text>
<text text-anchor="middle" x="145.43" y="-184.05" font-family="Times New Roman,serif" font-size="14.00">comp:</text>
<text text-anchor="middle" x="145.43" y="-169.05" font-family="Times New Roman,serif" font-size="14.00">value:</text>
<text text-anchor="middle" x="145.43" y="-154.05" font-family="Times New Roman,serif" font-size="14.00">lcc:0.33</text>
</g>
<!-- index:5
comp:
value:
lcc:0.00&#45;&gt;index:6
comp:
value:
lcc:0.33 -->
<g id="edge3" class="edge">
<title>index:5
comp:
value:
lcc:0.00&#45;&gt;index:6
comp:
value:
lcc:0.33</title>
<path fill="none" stroke="black" d="M145.43,-264.05C145.43,-255.79 145.43,-247.1 145.43,-238.6"/>
<polygon fill="black" stroke="black" points="148.93,-238.36 145.43,-228.36 141.93,-238.36 148.93,-238.36"/>
</g>
<!-- index:6
comp:
value:
lcc:0.33&#45;&gt;index:1
comp:
value:
lcc:0.20 -->
<g id="edge4" class="edge">
<title>index:6
comp:
value:
lcc:0.33&#45;&gt;index:1
comp:
value:
lcc:0.20</title>
<path fill="none" stroke="black" d="M173.57,-143.68C186.06,-127.9 200.88,-109.18 214.02,-92.57"/>
<polygon fill="black" stroke="black" points="216.85,-94.62 220.32,-84.61 211.37,-90.28 216.85,-94.62"/>
</g>
<!-- index:7
comp:
value:
lcc:0.33&#45;&gt;index:1
comp:
value:
lcc:0.20 -->
<g id="edge5" class="edge">
<title>index:7
comp:
value:
lcc:0.33&#45;&gt;index:1
comp:
value:
lcc:0.20</title>
<path fill="none" stroke="black" d="M248.43,-131.89C248.43,-123.62 248.43,-114.94 248.43,-106.43"/>
<polygon fill="black" stroke="black" points="251.93,-106.19 248.43,-96.19 244.93,-106.19 251.93,-106.19"/>
</g>
<!-- index:9
comp:
value:
lcc:1.00 -->
<g id="node9" class="node">
<title>index:9
comp:
value:
lcc:1.00</title>
<ellipse fill="none" stroke="black" cx="351.43" cy="-180.25" rx="42.35" ry="48.17"/>
<text text-anchor="middle" x="351.43" y="-199.05" font-family="Times New Roman,serif" font-size="14.00">index:9</text>
<text text-anchor="middle" x="351.43" y="-184.05" font-family="Times New Roman,serif" font-size="14.00">comp:</text>
<text text-anchor="middle" x="351.43" y="-169.05" font-family="Times New Roman,serif" font-size="14.00">value:</text>
<text text-anchor="middle" x="351.43" y="-154.05" font-family="Times New Roman,serif" font-size="14.00">lcc:1.00</text>
</g>
<!-- index:9
comp:
value:
lcc:1.00&#45;&gt;index:1
comp:
value:
lcc:0.20 -->
<g id="edge7" class="edge">
<title>index:9
comp:
value:
lcc:1.00&#45;&gt;index:1
comp:
value:
lcc:0.20</title>
<path fill="none" stroke="black" d="M323.28,-143.68C310.79,-127.9 295.98,-109.18 282.84,-92.57"/>
<polygon fill="black" stroke="black" points="285.49,-90.28 276.54,-84.61 280,-94.62 285.49,-90.28"/>
</g>
<!-- index:10
comp:
value:
lcc:1.00 -->
<g id="node10" class="node">
<title>index:10
comp:
value:
lcc:1.00</title>
<ellipse fill="none" stroke="black" cx="456.43" cy="-180.25" rx="44.6" ry="48.17"/>
<text text-anchor="middle" x="456.43" y="-199.05" font-family="Times New Roman,serif" font-size="14.00">index:10</text>
<text text-anchor="middle" x="456.43" y="-184.05" font-family="Times New Roman,serif" font-size="14.00">comp:</text>
<text text-anchor="middle" x="456.43" y="-169.05" font-family="Times New Roman,serif" font-size="14.00">value:</text>
<text text-anchor="middle" x="456.43" y="-154.05" font-family="Times New Roman,serif" font-size="14.00">lcc:1.00</text>
</g>
<!-- index:10
comp:
value:
lcc:1.00&#45;&gt;index:1
comp:
value:
lcc:0.20 -->
<g id="edge8" class="edge">
<title>index:10
comp:
value:
lcc:1.00&#45;&gt;index:1
comp:
value:
lcc:0.20</title>
<path fill="none" stroke="black" d="M423.08,-148.16C416.45,-142.56 409.38,-136.98 402.43,-132.17 368.82,-108.88 327.99,-87.12 296.82,-71.71"/>
<polygon fill="black" stroke="black" points="297.99,-68.39 287.47,-67.14 294.91,-74.68 297.99,-68.39"/>
</g>
</g>
</svg>
